<?xml version="1.0" encoding="UTF-8" standalone="no"?>
<!-- Created with Inkscape (http://www.inkscape.org/) -->

<svg
   width="512"
   height="512"
   viewBox="0 0 135.46666 135.46666"
   version="1.1"
   id="svg5"
   inkscape:version="1.2.2 (b0a8486541, 2022-12-01)"
   sodipodi:docname="login_logo.svg"
   xmlns:inkscape="http://www.inkscape.org/namespaces/inkscape"
   xmlns:sodipodi="http://sodipodi.sourceforge.net/DTD/sodipodi-0.dtd"
   xmlns="http://www.w3.org/2000/svg"
   xmlns:svg="http://www.w3.org/2000/svg">
  <sodipodi:namedview
     id="namedview7"
     pagecolor="#ffffff"
     bordercolor="#000000"
     borderopacity="0.25"
     inkscape:showpageshadow="false"
     inkscape:pageopacity="0.0"
     inkscape:pagecheckerboard="0"
     inkscape:deskcolor="#d1d1d1"
     inkscape:document-units="px"
     showgrid="false"
     inkscape:zoom="1.009145"
     inkscape:cx="44.592204"
     inkscape:cy="383.98843"
     inkscape:window-width="2527"
     inkscape:window-height="1408"
     inkscape:window-x="33"
     inkscape:window-y="0"
     inkscape:window-maximized="1"
     inkscape:current-layer="layer1" />
  <defs
     id="defs2" />
  <g
     inkscape:label="Livello 1"
     inkscape:groupmode="layer"
     id="layer1">
    <rect
       style="fill:#4662d9;fill-opacity:1;stroke:#00aad4;stroke-width:0;stroke-linecap:round;stroke-linejoin:round;stroke-dasharray:none"
       id="rect1329"
       width="135.46666"
       height="135.46666"
       x="-8.6329848e-08"
       y="-8.6329848e-08" />
    <path
       style="color:#000000;fill:#ffffff;stroke-width:0.82626;stroke-linecap:round;stroke-linejoin:round;-inkscape-stroke:none"
       d="m 67.732579,25.85453 c -17.879747,0 -32.461355,14.583223 -32.461356,32.46297 -3e-6,17.879748 14.581606,32.46297 32.461356,32.46297 17.879747,0 32.462971,-14.583222 32.462961,-32.46297 0,-17.879747 -14.583216,-32.462968 -32.462961,-32.46297 z m 0,8.262597 c 13.414311,2e-6 24.200371,10.786061 24.200371,24.200373 3e-6,13.41431 -10.786058,24.20037 -24.200371,24.20037 -13.414314,0 -24.198761,-10.78606 -24.198759,-24.20037 0,-13.414314 10.784446,-24.200373 24.198759,-24.200373 z"
       id="path234" />
    <g
       aria-label="U"
       id="text350"
       style="font-size:67.6356px;font-family:'Bebas Neue';-inkscape-font-specification:'Bebas Neue';text-align:center;text-anchor:middle;fill:#ffffff;stroke:#00aad4;stroke-width:0;stroke-linecap:round;stroke-linejoin:round"
       transform="matrix(0.8262597,0,0,0.8262597,11.768008,-23.443725)">
      <path
         d="m 71.690011,77.784223 h 6.154839 v 36.387947 q 0,5.95194 -6.357746,5.95194 h -7.507551 q -6.357746,0 -6.357746,-5.95194 V 77.784223 h 6.154839 v 35.441057 q 0,1.21744 0.405814,1.62325 0.405813,0.33818 1.623254,0.33818 h 3.855229 q 1.285076,0 1.623254,-0.33818 0.405814,-0.40581 0.405814,-1.62325 z"
         style="font-family:Teko;-inkscape-font-specification:Teko;fill:#ffffff"
         id="path1240" />
    </g>
    <g
       id="g366"
       transform="matrix(0.75090753,0,0,0.75090753,16.87186,25.294031)">
      <g
         aria-label="UREJENO"
         id="text1115"
         style="font-size:31.194px;font-family:Teko;-inkscape-font-specification:Teko;text-align:center;text-anchor:middle;fill:#ffffff;stroke:#00aad4;stroke-width:0;stroke-linecap:round;stroke-linejoin:round"
         transform="matrix(0.8262597,0,0,0.8262597,11.768008,-23.443725)">
        <path
           d="M 34.932846,141.50649 H 37.7715 v 16.78237 q 0,2.74508 -2.932236,2.74508 H 31.37673 q -2.932237,0 -2.932237,-2.74508 v -16.78237 h 2.838655 v 16.34566 q 0,0.56149 0.187164,0.74865 0.187164,0.15597 0.748656,0.15597 h 1.778058 q 0.592686,0 0.748656,-0.15597 0.187164,-0.18716 0.187164,-0.74865 z"
           id="path1247"
           style="fill:#ffffff" />
        <path
           d="m 43.729533,143.78365 v 7.11224 h 2.745072 q 0.561492,0 0.748656,-0.15597 0.187164,-0.18717 0.187164,-0.74866 v -5.30298 q 0,-0.56149 -0.187164,-0.71746 -0.187164,-0.18717 -0.748656,-0.18717 z m 0,9.3582 v 7.89209 h -2.80746 v -19.52745 h 6.39477 q 2.901042,0 2.901042,2.74507 v 6.11403 q 0,2.37074 -2.089998,2.71388 l 3.088206,7.95447 h -3.025818 l -2.932236,-7.89209 z"
           id="path1249"
           style="fill:#ffffff" />
        <path
           d="m 56.11355,158.75677 h 5.646114 v 2.27717 h -8.484768 v -19.52745 h 8.26641 v 2.27716 H 56.11355 v 6.02045 h 4.491936 v 2.27716 H 56.11355 Z"
           id="path1251"
           style="fill:#ffffff" />
        <path
           d="m 62.789078,154.60797 h 2.838654 v 3.24418 q 0,0.56149 0.187164,0.74865 0.187164,0.15597 0.748656,0.15597 h 0.904626 q 0.561492,0 0.748656,-0.15597 0.187164,-0.18716 0.187164,-0.74865 v -16.34566 h 2.838654 v 16.78237 q 0,2.74508 -2.901042,2.74508 h -2.65149 q -2.901042,0 -2.901042,-2.74508 z"
           id="path1253"
           style="fill:#ffffff" />
        <path
           d="m 77.231889,158.75677 h 5.646114 v 2.27717 h -8.484768 v -19.52745 h 8.26641 v 2.27716 h -5.427756 v 6.02045 h 4.491936 v 2.27716 h -4.491936 z"
           id="path1255"
           style="fill:#ffffff" />
        <path
           d="m 92.049052,141.50649 h 2.589102 v 19.52745 H 91.7995 l -4.117608,-14.09969 v 14.09969 H 85.09279 v -19.52745 h 2.96343 l 3.992832,13.69417 z"
           id="path1257"
           style="fill:#ffffff" />
        <path
           d="m 104.21471,157.85215 v -13.16387 q 0,-0.56149 -0.18716,-0.71746 -0.18717,-0.18717 -0.74866,-0.18717 h -1.80925 q -0.56149,0 -0.74866,0.18717 -0.15597,0.15597 -0.15597,0.71746 v 13.16387 q 0,0.56149 0.15597,0.74865 0.18717,0.15597 0.74866,0.15597 h 1.80925 q 0.56149,0 0.74866,-0.15597 0.18716,-0.18716 0.18716,-0.74865 z m -3.55611,-16.34566 h 3.46253 q 2.90104,0 2.90104,2.74507 v 14.0373 q 0,2.74508 -2.90104,2.74508 h -3.46253 q -2.932241,0 -2.932241,-2.74508 v -14.0373 q 0,-2.74507 2.932241,-2.74507 z"
           id="path1259"
           style="fill:#ffffff" />
      </g>
    </g>
    <g
       aria-label="U"
       transform="matrix(0,-0.8262597,-0.8262597,0,11.768008,-23.443725)"
       id="text1226"
       style="font-size:67.6356px;font-family:'Bebas Neue';-inkscape-font-specification:'Bebas Neue';text-align:center;text-anchor:middle;fill:#ffffff;stroke:#00aad4;stroke-width:0;stroke-linecap:round;stroke-linejoin:round">
      <path
         d="m -94.997481,-88.903269 h 6.154839 v 36.387951 q 0,5.951933 -6.357746,5.951933 h -7.507552 q -6.35775,0 -6.35775,-5.951933 v -36.387951 h 6.15484 v 35.441053 q 0,1.217441 0.40582,1.623254 0.40581,0.338178 1.62325,0.338178 h 3.855231 q 1.285076,0 1.623254,-0.338178 0.405814,-0.405813 0.405814,-1.623254 z"
         style="font-family:Teko;-inkscape-font-specification:Teko;fill:#ffffff"
         id="path1243" />
    </g>
  </g>
</svg>
