<?xml version="1.0" encoding="UTF-8" standalone="no"?>
<!-- Created with Inkscape (http://www.inkscape.org/) -->

<svg
   width="135"
   height="32"
   viewBox="0 0 35.718751 8.4666665"
   version="1.1"
   id="svg8"
   inkscape:version="1.2.2 (b0a8486541, 2022-12-01)"
   sodipodi:docname="navbar_logo.svg"
   xml:space="preserve"
   xmlns:inkscape="http://www.inkscape.org/namespaces/inkscape"
   xmlns:sodipodi="http://sodipodi.sourceforge.net/DTD/sodipodi-0.dtd"
   xmlns="http://www.w3.org/2000/svg"
   xmlns:svg="http://www.w3.org/2000/svg"
   xmlns:rdf="http://www.w3.org/1999/02/22-rdf-syntax-ns#"
   xmlns:cc="http://creativecommons.org/ns#"
   xmlns:dc="http://purl.org/dc/elements/1.1/"><defs
     id="defs2" /><sodipodi:namedview
     id="base"
     pagecolor="#ffffff"
     bordercolor="#666666"
     borderopacity="1.0"
     inkscape:pageopacity="0.0"
     inkscape:pageshadow="2"
     inkscape:zoom="2.3222222"
     inkscape:cx="67.607656"
     inkscape:cy="52.320575"
     inkscape:document-units="px"
     inkscape:current-layer="g920"
     showgrid="false"
     units="px"
     inkscape:showpageshadow="false"
     inkscape:window-width="2527"
     inkscape:window-height="1408"
     inkscape:window-x="33"
     inkscape:window-y="0"
     inkscape:window-maximized="1"
     inkscape:pagecheckerboard="0"
     inkscape:deskcolor="#d1d1d1" /><metadata
     id="metadata5"><rdf:RDF><cc:Work
         rdf:about=""><dc:format>image/svg+xml</dc:format><dc:type
           rdf:resource="http://purl.org/dc/dcmitype/StillImage" /><dc:title /></cc:Work></rdf:RDF></metadata><g
     inkscape:label="Livello 1"
     inkscape:groupmode="layer"
     id="layer1"
     transform="translate(0,-288.53334)"><g
       id="g847"
       transform="matrix(0.87627199,0,0,0.87627199,6.3981485,36.329092)"><g
         id="g920"
         transform="matrix(1.0672545,0,0,1.0672545,-0.19789691,-19.681758)"><g
           id="text837"
           style="font-style:normal;font-weight:normal;font-size:5.27555px;line-height:1.25;font-family:sans-serif;letter-spacing:0px;word-spacing:0px;fill:#e30000;fill-opacity:1;stroke:none;stroke-width:0.131889"
           aria-label="Fiscal"
           transform="translate(0.56582946)"><path
             id="path882"
             style="font-style:normal;font-variant:normal;font-weight:normal;font-stretch:normal;font-family:'Futura XBlkIt BT';-inkscape-font-specification:'Futura XBlkIt BT';fill:#e30000;fill-opacity:1;stroke-width:0.131889"
             d="m 0.91854507,294.44641 0.69550763,-3.7712 h 2.5012515 l -0.1906206,1.02266 H 2.8067195 l -0.085006,0.45337 h 1.066445 l -0.1854687,0.99174 h -1.063869 l -0.2421397,1.30343 z"
             inkscape:connector-curvature="0" /><path
             id="path884"
             style="font-style:normal;font-variant:normal;font-weight:normal;font-stretch:normal;font-family:'Futura XBlkIt BT';-inkscape-font-specification:'Futura XBlkIt BT';fill:#e30000;fill-opacity:1;stroke-width:0.131889"
             d="m 5.0349199,291.64635 q -0.280779,0 -0.4713996,-0.17259 -0.1880447,-0.17516 -0.1880447,-0.43018 0,-0.27306 0.224108,-0.47398 0.224108,-0.20092 0.5357985,-0.20092 0.283355,0 0.4713996,0.17258 0.1880447,0.17002 0.1880447,0.42761 0,0.27563 -0.224108,0.47655 -0.2241081,0.20093 -0.5357985,0.20093 z m -1.1900908,2.80006 0.4894313,-2.66354 H 5.591326 l -0.4920073,2.66354 z"
             inkscape:connector-curvature="0" /><path
             id="path886"
             style="font-style:normal;font-variant:normal;font-weight:normal;font-stretch:normal;font-family:'Futura XBlkIt BT';-inkscape-font-specification:'Futura XBlkIt BT';fill:#e30000;fill-opacity:1;stroke-width:0.131889"
             d="m 5.5681422,294.09866 0.4713996,-0.78567 q 0.1931966,0.19062 0.3812412,0.29624 0.1880447,0.10303 0.3348741,0.10303 0.061823,0 0.1004622,-0.0309 0.041215,-0.0309 0.041215,-0.0799 0,-0.0747 -0.1828928,-0.17001 l -0.015456,-0.008 -0.2009244,-0.10562 q -0.2369878,-0.12622 -0.3503298,-0.29108 -0.113342,-0.16744 -0.113342,-0.38897 0,-0.41215 0.3168424,-0.6749 0.3194183,-0.26532 0.8217294,-0.26532 0.2627473,0 0.5203427,0.0798 0.2575954,0.0773 0.5280706,0.24214 l -0.4250324,0.71612 q -0.1339496,-0.12622 -0.2575954,-0.1932 -0.1236458,-0.0695 -0.22926,-0.0695 -0.064399,0 -0.1056141,0.0335 -0.041215,0.0335 -0.041215,0.0824 0,0.0618 0.1519812,0.13137 0.043791,0.0206 0.066975,0.0309 l 0.1597091,0.0747 q 0.2447157,0.11076 0.3606336,0.28335 0.1159179,0.17001 0.1159179,0.42503 0,0.45595 -0.3297221,0.73415 -0.3297221,0.2782 -0.8732485,0.2782 -0.2885068,0 -0.6001973,-0.11076 -0.3116904,-0.11334 -0.6465645,-0.33745 z"
             inkscape:connector-curvature="0" /><path
             id="path888"
             style="font-style:normal;font-variant:normal;font-weight:normal;font-stretch:normal;font-family:'Futura XBlkIt BT';-inkscape-font-specification:'Futura XBlkIt BT';fill:#e30000;fill-opacity:1;stroke-width:0.131889"
             d="m 10.199708,294.44641 q -0.164861,0.0515 -0.3065382,0.0747 -0.1391015,0.0258 -0.2627473,0.0258 -0.5692859,0 -0.9324955,-0.34775 -0.3606335,-0.34775 -0.3606335,-0.89643 0,-0.32457 0.1133419,-0.61308 0.113342,-0.29108 0.3245703,-0.50746 0.2318358,-0.23699 0.5332225,-0.36064 0.3013866,-0.12364 0.6542923,-0.12364 0.1906205,0 0.3657855,0.0386 0.175165,0.0386 0.342602,0.11334 l -0.180317,0.99174 q -0.123646,-0.0799 -0.226684,-0.11849 -0.100462,-0.0386 -0.195772,-0.0386 -0.2086526,0 -0.3400263,0.13137 -0.1287977,0.13138 -0.1287977,0.3426 0,0.1829 0.113342,0.29366 0.113342,0.10819 0.303963,0.10819 0.07985,0 0.167437,-0.0232 0.08758,-0.0258 0.185468,-0.0773 z"
             inkscape:connector-curvature="0" /><path
             id="path890"
             style="font-style:normal;font-variant:normal;font-weight:normal;font-stretch:normal;font-family:'Futura XBlkIt BT';-inkscape-font-specification:'Futura XBlkIt BT';fill:#e30000;fill-opacity:1;stroke-width:0.131889"
             d="m 12.438213,292.77977 q -0.151982,0 -0.249868,0.12107 -0.09789,0.11849 -0.09789,0.30654 0,0.14425 0.06955,0.22153 0.07213,0.0773 0.203501,0.0773 0.164861,0 0.267899,-0.11334 0.103038,-0.11592 0.103038,-0.29624 0,-0.14683 -0.08243,-0.23183 -0.07986,-0.085 -0.213804,-0.085 z m 0.538374,-0.9969 h 1.223578 l -0.494583,2.66354 h -1.182363 l 0.09531,-0.35806 q -0.167437,0.22926 -0.365785,0.34261 -0.195773,0.11076 -0.437912,0.11076 -0.427609,0 -0.705812,-0.32972 -0.275627,-0.32972 -0.275627,-0.85264 0,-0.30139 0.09531,-0.59247 0.09789,-0.29366 0.275627,-0.53065 0.198349,-0.26532 0.443065,-0.40185 0.247291,-0.13652 0.52807,-0.13652 0.252444,0 0.437912,0.11592 0.185469,0.11591 0.316843,0.3529 z"
             inkscape:connector-curvature="0" /><path
             id="path892"
             style="font-style:normal;font-variant:normal;font-weight:normal;font-stretch:normal;font-family:'Futura XBlkIt BT';-inkscape-font-specification:'Futura XBlkIt BT';fill:#e30000;fill-opacity:1;stroke-width:0.131889"
             d="m 15.529358,294.44641 h -1.239034 l 0.736722,-3.99273 h 1.24161 z"
             inkscape:connector-curvature="0" /></g><path
           id="path895"
           style="font-style:normal;font-variant:normal;font-weight:normal;font-stretch:normal;font-size:5.27555px;line-height:1.25;font-family:'Futura XBlkIt BT';-inkscape-font-specification:'Futura XBlkIt BT';letter-spacing:0px;word-spacing:0px;fill:#ffffff;fill-opacity:1;stroke:none;stroke-width:0.131889"
           d="m 20.490699,294.00133 q -0.391545,0.27047 -0.790818,0.40442 -0.396697,0.13395 -0.814002,0.13395 -0.847489,0 -1.370407,-0.48943 -0.522919,-0.48943 -0.522919,-1.27767 0,-0.42246 0.128798,-0.78824 0.131373,-0.36837 0.388969,-0.66718 0.29881,-0.35805 0.731571,-0.5461 0.435336,-0.18804 0.950527,-0.18804 0.600197,0 1.027806,0.24214 0.430184,0.24214 0.680051,0.72384 l -1.223578,0.45337 q -0.09789,-0.13653 -0.226684,-0.20093 -0.126221,-0.0644 -0.293658,-0.0644 -0.360634,0 -0.587318,0.26533 -0.226684,0.26274 -0.226684,0.68005 0,0.34775 0.2035,0.55898 0.206077,0.21123 0.546103,0.21123 0.04637,0 0.09531,-0.003 0.04894,-0.005 0.09789,-0.0129 l 0.06955,-0.36836 h -0.489431 l 0.157133,-0.85521 h 1.79544 z"
           inkscape:connector-curvature="0" /><path
           id="path897"
           style="font-style:normal;font-variant:normal;font-weight:normal;font-stretch:normal;font-size:5.27555px;line-height:1.25;font-family:'Futura XBlkIt BT';-inkscape-font-specification:'Futura XBlkIt BT';letter-spacing:0px;word-spacing:0px;fill:#ffffff;fill-opacity:1;stroke:none;stroke-width:0.131889"
           d="m 22.672532,292.7726 q -0.151981,0 -0.249867,0.12107 -0.09789,0.11849 -0.09789,0.30654 0,0.14425 0.06955,0.22153 0.07213,0.0773 0.2035,0.0773 0.164862,0 0.2679,-0.11335 0.103038,-0.11591 0.103038,-0.29623 0,-0.14683 -0.08243,-0.23184 -0.07985,-0.085 -0.213804,-0.085 z m 0.538375,-0.9969 h 1.223578 l -0.494583,2.66354 h -1.182363 l 0.09531,-0.35806 q -0.167437,0.22926 -0.365786,0.3426 -0.195772,0.11077 -0.437912,0.11077 -0.427608,0 -0.705811,-0.32972 -0.275627,-0.32972 -0.275627,-0.85264 0,-0.30139 0.09531,-0.59247 0.09789,-0.29366 0.275627,-0.53065 0.198349,-0.26532 0.443064,-0.40185 0.247292,-0.13652 0.528071,-0.13652 0.252443,0 0.437912,0.11591 0.185469,0.11592 0.316842,0.35291 z"
           inkscape:connector-curvature="0" /><path
           id="path899"
           style="font-style:normal;font-variant:normal;font-weight:normal;font-stretch:normal;font-size:5.27555px;line-height:1.25;font-family:'Futura XBlkIt BT';-inkscape-font-specification:'Futura XBlkIt BT';letter-spacing:0px;word-spacing:0px;fill:#ffffff;fill-opacity:1;stroke:none;stroke-width:0.131889"
           d="m 24.470548,294.43924 0.497159,-2.66354 h 1.179787 l -0.07728,0.38382 q 0.231836,-0.23441 0.463671,-0.35033 0.234412,-0.11849 0.473976,-0.11849 0.345178,0 0.55383,0.21895 0.211228,0.21638 0.211228,0.57702 0,0.10303 -0.01288,0.22926 -0.01288,0.12622 -0.03864,0.27305 l -0.265323,1.45026 h -1.264793 l 0.247291,-1.3395 q 0.01288,-0.0695 0.01803,-0.13395 0.0077,-0.0644 0.0077,-0.12622 0,-0.0721 -0.04379,-0.11592 -0.04379,-0.0464 -0.113342,-0.0464 -0.139101,0 -0.224108,0.12879 -0.08243,0.1288 -0.139101,0.44564 l -0.21638,1.18752 z"
           inkscape:connector-curvature="0" /><path
           id="path901"
           style="font-style:normal;font-variant:normal;font-weight:normal;font-stretch:normal;font-size:5.27555px;line-height:1.25;font-family:'Futura XBlkIt BT';-inkscape-font-specification:'Futura XBlkIt BT';letter-spacing:0px;word-spacing:0px;fill:#ffffff;fill-opacity:1;stroke:none;stroke-width:0.131889"
           d="m 29.710039,292.74169 c -0.103038,0 -0.188044,0.0395 -0.255019,0.11849 -0.06526,0.0773 -0.09789,0.17602 -0.09789,0.29623 0,0.0944 0.02318,0.16744 0.06955,0.21896 0.04809,0.0515 0.11592,0.0773 0.203501,0.0773 0.109907,0 0.200066,-0.0369 0.270475,-0.11077 0.07041,-0.0756 0.105614,-0.17259 0.105614,-0.29108 0,-0.0927 -0.02748,-0.16744 -0.08243,-0.22411 -0.05323,-0.0567 -0.124501,-0.085 -0.213804,-0.085 z m 0.528071,-0.96599 h 1.223578 l -0.453368,2.4111 c -0.08587,0.4568 -0.272193,1.70028 -0.558982,1.93556 -0.286789,0.23526 -0.662879,0.3529 -1.128268,0.3529 -0.206076,0 -0.410435,-0.0258 -0.613077,-0.0773 -0.200925,-0.0498 -0.408718,-0.12708 -0.623381,-0.23183 l 0.422457,-0.76506 c 0.116776,0.0773 0.229259,0.13395 0.33745,0.17001 0.109907,0.0378 0.224108,0.0567 0.342601,0.0567 0.161427,0 0.297952,-0.0481 0.409577,-0.14425 0.111625,-0.0945 0.191479,-1.12843 0.239564,-1.30703 l 0.0644,-0.22668 c -0.113342,0.14597 -0.237847,0.25673 -0.373514,0.3323 -0.135667,0.0738 -0.281637,0.11076 -0.437912,0.11076 -0.298811,0 -0.539233,-0.0979 -0.721267,-0.29366 -0.180317,-0.19577 -0.270475,-0.45337 -0.270475,-0.77278 0,-0.18891 0.03177,-0.37867 0.09531,-0.56929 0.06526,-0.19234 0.156277,-0.36665 0.273051,-0.52292 0.130515,-0.17516 0.277345,-0.30739 0.440488,-0.39669 0.164861,-0.091 0.341744,-0.13653 0.530647,-0.13653 0.168296,0 0.314267,0.0386 0.437912,0.11592 0.123646,0.0756 0.22926,0.19148 0.316843,0.34775 z"
           inkscape:connector-curvature="0"
           sodipodi:nodetypes="ccscscsccccccssccccsccccscscccsccc" /><path
           id="path873"
           d="m -0.00650973,292.64609 a 3.2868571,3.2868571 0 0 1 -3.28685717,3.28685 3.2868571,3.2868571 0 0 1 -3.2868571,-3.28685 3.2868571,3.2868571 0 0 1 3.2868571,-3.28686 3.2868571,3.2868571 0 0 1 3.28685717,3.28686 z"
           style="fill:#ffffff;fill-opacity:1;stroke:none;stroke-width:0.301942"
           inkscape:connector-curvature="0" /><g
           id="text877"
           style="font-style:normal;font-weight:normal;font-size:5.25546px;line-height:1.25;font-family:sans-serif;letter-spacing:0px;word-spacing:0px;fill:#4662d9;fill-opacity:1;stroke:none;stroke-width:0.131387"
           aria-label="€"
           transform="translate(-0.56582946)"><path
             id="path879"
             style="font-style:normal;font-variant:normal;font-weight:normal;font-stretch:normal;font-family:'Futura XBlk BT';-inkscape-font-specification:'Futura XBlk BT';fill:#4662d9;fill-opacity:1;stroke-width:0.131387"
             d="m -1.4758404,293.18498 -0.041058,1.22918 q -0.2232544,0.0898 -0.4413766,0.13344 -0.2181222,0.0462 -0.4413767,0.0462 -0.7724092,0 -1.2856378,-0.38492 -0.5132287,-0.38492 -0.6594989,-1.07521 h -0.4619058 l 0.084683,-0.35413 h 0.3310325 q -0.00257,-0.0257 -0.00513,-0.059 0,-0.0334 0,-0.0975 0,-0.0231 0.00257,-0.0667 0.00257,-0.0462 0.00257,-0.0693 h -0.4157152 l 0.084683,-0.35926 h 0.3772231 q 0.1462702,-0.67233 0.662065,-1.04955 0.518361,-0.37979 1.2984686,-0.37979 0.2258206,0 0.4439428,0.0487 0.2206883,0.0462 0.4388105,0.14114 v 1.21892 q -0.161667,-0.14627 -0.3643924,-0.22325 -0.2001592,-0.077 -0.4182813,-0.077 -0.2258207,0 -0.3977523,0.0847 -0.1719316,0.0821 -0.2745773,0.23609 h 1.0290235 l -0.1360056,0.35926 h -1.0033621 q 0,0.003 -0.00257,0.0128 -0.0077,0.0795 -0.0077,0.12317 0,0.0642 0,0.0975 0.00257,0.0334 0.00513,0.059 h 0.9084148 l -0.1360056,0.35413 h -0.6877264 q 0.089815,0.16936 0.2617466,0.25918 0.1744977,0.0873 0.4157152,0.0873 0.2232545,0 0.4413767,-0.077 0.2206883,-0.077 0.3926199,-0.21812 z"
             inkscape:connector-curvature="0" /></g><g
           id="path462"
           style="font-size:2.28671px;font-family:'Futura XBlkIt BT';-inkscape-font-specification:'Futura XBlkIt BT';text-align:center;text-anchor:middle;fill:#ffffff;stroke:#ffccaa;stroke-width:0;stroke-linecap:round;stroke-linejoin:round"><path
             style="color:#000000;-inkscape-font-specification:Teko;stroke:none;stroke-linecap:butt;stroke-linejoin:miter;-inkscape-stroke:none;fill:#ffffff"
             d="m 15.804284,295.42354 h -0.208091 v -0.1898 q 0,-0.0412 -0.01372,-0.0526 -0.01372,-0.0137 -0.05488,-0.0137 H 15.41097 q -0.04116,0 -0.05488,0.0137 -0.01372,0.0114 -0.01372,0.0526 v 0.97643 q 0,0.0412 0.01372,0.0549 0.01372,0.0114 0.05488,0.0114 h 0.116622 q 0.04116,0 0.05488,-0.0114 0.01372,-0.0137 0.01372,-0.0549 v -0.34987 h -0.114335 v -0.16007 h 0.322426 v 0.53509 q 0,0.20352 -0.212664,0.20352 h -0.244678 q -0.212664,0 -0.212664,-0.20352 v -1.02902 q 0,-0.20123 0.212664,-0.20123 h 0.244678 q 0.212664,0 0.212664,0.20123 z"
             id="path495" /><path
             style="color:#000000;-inkscape-font-specification:Teko;fill:#ffffff;stroke:none;stroke-linecap:butt;stroke-linejoin:miter;-inkscape-stroke:none"
             d="m 15.804284,295.42354 h -0.208091 v -0.1898 c 0,-0.0275 -0.0046,-0.045 -0.01372,-0.0526 -0.0091,-0.009 -0.02744,-0.0137 -0.05488,-0.0137 H 15.41097 c -0.02744,0 -0.04573,0.005 -0.05488,0.0137 -0.0091,0.008 -0.01372,0.0251 -0.01372,0.0526 v 0.97643 c 0,0.0275 0.0046,0.0458 0.01372,0.0549 0.0091,0.008 0.02744,0.0114 0.05488,0.0114 h 0.116622 c 0.02744,0 0.04573,-0.004 0.05488,-0.0114 0.0091,-0.009 0.01372,-0.0274 0.01372,-0.0549 v -0.34987 h -0.114335 v -0.16007 h 0.322426 v 0.53509 c 0,0.13568 -0.07089,0.20352 -0.212664,0.20352 h -0.244678 c -0.141776,0 -0.212664,-0.0678 -0.212664,-0.20352 v -1.02902 c 0,-0.13415 0.07089,-0.20123 0.212664,-0.20123 h 0.244678 c 0.141776,0 0.212664,0.0671 0.212664,0.20123 z"
             id="path497" /></g><g
           id="path464"
           style="font-size:2.28671px;font-family:'Futura XBlkIt BT';-inkscape-font-specification:'Futura XBlkIt BT';text-align:center;text-anchor:middle;fill:#ffffff;stroke:#ffccaa;stroke-width:0;stroke-linecap:round;stroke-linejoin:round"><path
             style="color:#000000;-inkscape-font-specification:Teko;stroke:none;stroke-linecap:butt;stroke-linejoin:miter;-inkscape-stroke:none;fill:#ffffff"
             d="m 16.227325,296.26962 h 0.413895 v 0.16693 h -0.621985 v -1.43148 h 0.605978 v 0.16693 h -0.397888 v 0.44134 h 0.329286 v 0.16693 h -0.329286 z"
             id="path501" /><path
             style="color:#000000;-inkscape-font-specification:Teko;fill:#ffffff;stroke:none;stroke-linecap:butt;stroke-linejoin:miter;-inkscape-stroke:none"
             d="m 16.227325,296.26962 h 0.413895 v 0.16693 h -0.621985 v -1.43148 h 0.605978 v 0.16693 h -0.397888 v 0.44134 h 0.329286 v 0.16693 h -0.329286 z"
             id="path503" /></g><g
           id="path466"
           style="font-size:2.28671px;font-family:'Futura XBlkIt BT';-inkscape-font-specification:'Futura XBlkIt BT';text-align:center;text-anchor:middle;fill:#ffffff;stroke:#ffccaa;stroke-width:0;stroke-linecap:round;stroke-linejoin:round"><path
             style="color:#000000;-inkscape-font-specification:Teko;stroke:none;stroke-linecap:butt;stroke-linejoin:miter;-inkscape-stroke:none;fill:#ffffff"
             d="m 17.313513,295.00507 h 0.189797 v 1.43148 h -0.20809 l -0.301846,-1.03359 v 1.03359 h -0.189797 v -1.43148 h 0.217238 l 0.292698,1.00387 z"
             id="path507" /><path
             style="color:#000000;-inkscape-font-specification:Teko;fill:#ffffff;stroke:none;stroke-linecap:butt;stroke-linejoin:miter;-inkscape-stroke:none"
             d="m 17.313513,295.00507 h 0.189797 v 1.43148 h -0.20809 l -0.301846,-1.03359 v 1.03359 h -0.189797 v -1.43148 h 0.217238 l 0.292698,1.00387 z"
             id="path509" /></g><g
           id="path468"
           style="font-size:2.28671px;font-family:'Futura XBlkIt BT';-inkscape-font-specification:'Futura XBlkIt BT';text-align:center;text-anchor:middle;fill:#ffffff;stroke:#ffccaa;stroke-width:0;stroke-linecap:round;stroke-linejoin:round"><path
             style="color:#000000;-inkscape-font-specification:Teko;stroke:none;stroke-linecap:butt;stroke-linejoin:miter;-inkscape-stroke:none;fill:#ffffff"
             d="m 17.949219,296.26962 h 0.413894 v 0.16693 h -0.621985 v -1.43148 h 0.605978 v 0.16693 h -0.397887 v 0.44134 h 0.329286 v 0.16693 h -0.329286 z"
             id="path513" /><path
             style="color:#000000;-inkscape-font-specification:Teko;fill:#ffffff;stroke:none;stroke-linecap:butt;stroke-linejoin:miter;-inkscape-stroke:none"
             d="m 17.949219,296.26962 h 0.413894 v 0.16693 h -0.621985 v -1.43148 h 0.605978 v 0.16693 h -0.397887 v 0.44134 h 0.329286 v 0.16693 h -0.329286 z"
             id="path515" /></g><g
           id="path470"
           style="font-size:2.28671px;font-family:'Futura XBlkIt BT';-inkscape-font-specification:'Futura XBlkIt BT';text-align:center;text-anchor:middle;fill:#ffffff;stroke:#ffccaa;stroke-width:0;stroke-linecap:round;stroke-linejoin:round"><path
             style="color:#000000;-inkscape-font-specification:Teko;stroke:none;stroke-linecap:butt;stroke-linejoin:miter;-inkscape-stroke:none;fill:#ffffff"
             d="m 18.731274,295.172 v 0.52137 h 0.201231 q 0.04116,0 0.05488,-0.0114 0.01372,-0.0137 0.01372,-0.0549 v -0.38874 q 0,-0.0412 -0.01372,-0.0526 -0.01372,-0.0137 -0.05488,-0.0137 z m 0,0.68602 v 0.57853 H 18.52547 v -1.43148 h 0.468776 q 0.212664,0 0.212664,0.20123 v 0.4482 q 0,0.17379 -0.15321,0.19894 l 0.226385,0.58311 h -0.221811 l -0.214951,-0.57853 z"
             id="path519" /><path
             style="color:#000000;-inkscape-font-specification:Teko;fill:#ffffff;stroke:none;stroke-linecap:butt;stroke-linejoin:miter;-inkscape-stroke:none"
             d="m 18.731274,295.172 v 0.52137 h 0.201231 c 0.02744,0 0.04573,-0.004 0.05488,-0.0114 0.0091,-0.009 0.01372,-0.0274 0.01372,-0.0549 v -0.38874 c 0,-0.0275 -0.0046,-0.045 -0.01372,-0.0526 -0.0091,-0.009 -0.02744,-0.0137 -0.05488,-0.0137 z m 0,0.68602 v 0.57853 H 18.52547 v -1.43148 h 0.468776 c 0.141776,0 0.212664,0.0671 0.212664,0.20123 v 0.4482 c 0,0.11586 -0.05107,0.18217 -0.15321,0.19894 l 0.226385,0.58311 h -0.221811 l -0.214951,-0.57853 z"
             id="path521" /></g><g
           id="path472"
           style="font-size:2.28671px;font-family:'Futura XBlkIt BT';-inkscape-font-specification:'Futura XBlkIt BT';text-align:center;text-anchor:middle;fill:#ffffff;stroke:#ffccaa;stroke-width:0;stroke-linecap:round;stroke-linejoin:round"><path
             style="color:#000000;-inkscape-font-specification:Teko;stroke:none;stroke-linecap:butt;stroke-linejoin:miter;-inkscape-stroke:none;fill:#ffffff"
             d="m 19.623091,295.93805 h 0.249251 L 19.742,295.18344 Z m 0.33386,0.4985 -0.05717,-0.33157 h -0.301846 l -0.05259,0.33157 h -0.205804 l 0.253825,-1.43148 h 0.299559 l 0.272118,1.43148 z"
             id="path525" /><path
             style="color:#000000;-inkscape-font-specification:Teko;fill:#ffffff;stroke:none;stroke-linecap:butt;stroke-linejoin:miter;-inkscape-stroke:none"
             d="m 19.623091,295.93805 h 0.249251 L 19.742,295.18344 Z m 0.33386,0.4985 -0.05717,-0.33157 h -0.301846 l -0.05259,0.33157 h -0.205804 l 0.253825,-1.43148 h 0.299559 l 0.272118,1.43148 z"
             id="path527" /></g><g
           id="path474"
           style="font-size:2.28671px;font-family:'Futura XBlkIt BT';-inkscape-font-specification:'Futura XBlkIt BT';text-align:center;text-anchor:middle;fill:#ffffff;stroke:#ffccaa;stroke-width:0;stroke-linecap:round;stroke-linejoin:round"><path
             style="color:#000000;-inkscape-font-specification:Teko;stroke:none;stroke-linecap:butt;stroke-linejoin:miter;-inkscape-stroke:none;fill:#ffffff"
             d="m 20.889929,295.00507 v 0.16693 h -0.240105 v 1.26455 H 20.444021 V 295.172 h -0.240105 v -0.16693 z"
             id="path531" /><path
             style="color:#000000;-inkscape-font-specification:Teko;fill:#ffffff;stroke:none;stroke-linecap:butt;stroke-linejoin:miter;-inkscape-stroke:none"
             d="m 20.889929,295.00507 v 0.16693 h -0.240105 v 1.26455 H 20.444021 V 295.172 h -0.240105 v -0.16693 z"
             id="path533" /></g><g
           id="path476"
           style="font-size:2.28671px;font-family:'Futura XBlkIt BT';-inkscape-font-specification:'Futura XBlkIt BT';text-align:center;text-anchor:middle;fill:#ffffff;stroke:#ffccaa;stroke-width:0;stroke-linecap:round;stroke-linejoin:round"><path
             style="color:#000000;-inkscape-font-specification:Teko;stroke:none;stroke-linecap:butt;stroke-linejoin:miter;-inkscape-stroke:none;fill:#ffffff"
             d="m 21.038564,295.00507 h 0.205803 v 1.43148 h -0.205803 z"
             id="path537" /><path
             style="color:#000000;-inkscape-font-specification:Teko;fill:#ffffff;stroke:none;stroke-linecap:butt;stroke-linejoin:miter;-inkscape-stroke:none"
             d="m 21.038564,295.00507 h 0.205803 v 1.43148 h -0.205803 z"
             id="path539" /></g><g
           id="path478"
           style="font-size:2.28671px;font-family:'Futura XBlkIt BT';-inkscape-font-specification:'Futura XBlkIt BT';text-align:center;text-anchor:middle;fill:#ffffff;stroke:#ffccaa;stroke-width:0;stroke-linecap:round;stroke-linejoin:round"><path
             style="color:#000000;-inkscape-font-specification:Teko;stroke:none;stroke-linecap:butt;stroke-linejoin:miter;-inkscape-stroke:none;fill:#ffffff"
             d="m 21.964679,296.20331 v -0.96499 q 0,-0.0412 -0.01372,-0.0526 -0.01372,-0.0137 -0.05488,-0.0137 H 21.76345 q -0.04116,0 -0.05488,0.0137 -0.01143,0.0114 -0.01143,0.0526 v 0.96499 q 0,0.0412 0.01143,0.0549 0.01372,0.0114 0.05488,0.0114 h 0.132629 q 0.04116,0 0.05488,-0.0114 0.01372,-0.0137 0.01372,-0.0549 z m -0.260684,-1.19824 h 0.253824 q 0.212664,0 0.212664,0.20123 v 1.02902 q 0,0.20123 -0.212664,0.20123 h -0.253824 q -0.214951,0 -0.214951,-0.20123 v -1.02902 q 0,-0.20123 0.214951,-0.20123 z"
             id="path543" /><path
             style="color:#000000;-inkscape-font-specification:Teko;fill:#ffffff;stroke:none;stroke-linecap:butt;stroke-linejoin:miter;-inkscape-stroke:none"
             d="m 21.964679,296.20331 v -0.96499 c 0,-0.0275 -0.0046,-0.045 -0.01372,-0.0526 -0.0091,-0.009 -0.02744,-0.0137 -0.05488,-0.0137 H 21.76345 c -0.02744,0 -0.04573,0.005 -0.05488,0.0137 -0.0076,0.008 -0.01143,0.0251 -0.01143,0.0526 v 0.96499 c 0,0.0275 0.0038,0.0458 0.01143,0.0549 0.0091,0.008 0.02744,0.0114 0.05488,0.0114 h 0.132629 c 0.02744,0 0.04573,-0.004 0.05488,-0.0114 0.0091,-0.009 0.01372,-0.0274 0.01372,-0.0549 z m -0.260684,-1.19824 h 0.253824 c 0.141776,0 0.212664,0.0671 0.212664,0.20123 v 1.02902 c 0,0.13415 -0.07089,0.20123 -0.212664,0.20123 h -0.253824 c -0.143301,0 -0.214951,-0.0671 -0.214951,-0.20123 v -1.02902 c 0,-0.13415 0.07165,-0.20123 0.214951,-0.20123 z"
             id="path545" /></g><g
           id="path480"
           style="font-size:2.28671px;font-family:'Futura XBlkIt BT';-inkscape-font-specification:'Futura XBlkIt BT';text-align:center;text-anchor:middle;fill:#ffffff;stroke:#ffccaa;stroke-width:0;stroke-linecap:round;stroke-linejoin:round"><path
             style="color:#000000;-inkscape-font-specification:Teko;stroke:none;stroke-linecap:butt;stroke-linejoin:miter;-inkscape-stroke:none;fill:#ffffff"
             d="m 22.90909,295.00507 h 0.189797 v 1.43148 h -0.208091 l -0.301846,-1.03359 v 1.03359 h -0.189797 v -1.43148 h 0.217238 l 0.292699,1.00387 z"
             id="path549" /><path
             style="color:#000000;-inkscape-font-specification:Teko;fill:#ffffff;stroke:none;stroke-linecap:butt;stroke-linejoin:miter;-inkscape-stroke:none"
             d="m 22.90909,295.00507 h 0.189797 v 1.43148 h -0.208091 l -0.301846,-1.03359 v 1.03359 h -0.189797 v -1.43148 h 0.217238 l 0.292699,1.00387 z"
             id="path551" /></g><g
           id="path482"
           style="font-size:2.28671px;font-family:'Futura XBlkIt BT';-inkscape-font-specification:'Futura XBlkIt BT';text-align:center;text-anchor:middle;fill:#ffffff;stroke:#ffccaa;stroke-width:0;stroke-linecap:round;stroke-linejoin:round"><path
             style="color:#000000;-inkscape-font-specification:Teko;stroke:none;stroke-linecap:butt;stroke-linejoin:miter;-inkscape-stroke:none;fill:#ffffff"
             d="m 24.178215,295.00507 h 0.189796 v 1.43148 h -0.20809 l -0.301846,-1.03359 v 1.03359 h -0.189797 v -1.43148 h 0.217238 l 0.292699,1.00387 z"
             id="path555" /><path
             style="color:#000000;-inkscape-font-specification:Teko;fill:#ffffff;stroke:none;stroke-linecap:butt;stroke-linejoin:miter;-inkscape-stroke:none"
             d="m 24.178215,295.00507 h 0.189796 v 1.43148 h -0.20809 l -0.301846,-1.03359 v 1.03359 h -0.189797 v -1.43148 h 0.217238 l 0.292699,1.00387 z"
             id="path557" /></g><g
           id="path484"
           style="font-size:2.28671px;font-family:'Futura XBlkIt BT';-inkscape-font-specification:'Futura XBlkIt BT';text-align:center;text-anchor:middle;fill:#ffffff;stroke:#ffccaa;stroke-width:0;stroke-linecap:round;stroke-linejoin:round"><path
             style="color:#000000;-inkscape-font-specification:Teko;stroke:none;stroke-linecap:butt;stroke-linejoin:miter;-inkscape-stroke:none;fill:#ffffff"
             d="m 24.813919,296.26962 h 0.413895 v 0.16693 h -0.621985 v -1.43148 h 0.605978 v 0.16693 h -0.397888 v 0.44134 h 0.329287 v 0.16693 h -0.329287 z"
             id="path561" /><path
             style="color:#000000;-inkscape-font-specification:Teko;fill:#ffffff;stroke:none;stroke-linecap:butt;stroke-linejoin:miter;-inkscape-stroke:none"
             d="m 24.813919,296.26962 h 0.413895 v 0.16693 h -0.621985 v -1.43148 h 0.605978 v 0.16693 h -0.397888 v 0.44134 h 0.329287 v 0.16693 h -0.329287 z"
             id="path563" /></g><g
           id="path486"
           style="font-size:2.28671px;font-family:'Futura XBlkIt BT';-inkscape-font-specification:'Futura XBlkIt BT';text-align:center;text-anchor:middle;fill:#ffffff;stroke:#ffccaa;stroke-width:0;stroke-linecap:round;stroke-linejoin:round"><path
             style="color:#000000;-inkscape-font-specification:Teko;stroke:none;stroke-linecap:butt;stroke-linejoin:miter;-inkscape-stroke:none;fill:#ffffff"
             d="m 25.808639,295.70481 0.30642,0.73174 h -0.228671 l -0.192084,-0.54423 -0.192084,0.54423 h -0.221811 l 0.301846,-0.73174 -0.281265,-0.69974 h 0.228671 l 0.164643,0.51451 0.16693,-0.51451 h 0.224097 z"
             id="path567" /><path
             style="color:#000000;-inkscape-font-specification:Teko;fill:#ffffff;stroke:none;stroke-linecap:butt;stroke-linejoin:miter;-inkscape-stroke:none"
             d="m 25.808639,295.70481 0.30642,0.73174 h -0.228671 l -0.192084,-0.54423 -0.192084,0.54423 h -0.221811 l 0.301846,-0.73174 -0.281265,-0.69974 h 0.228671 l 0.164643,0.51451 0.16693,-0.51451 h 0.224097 z"
             id="path569" /></g><g
           id="path488"
           style="font-size:2.28671px;font-family:'Futura XBlkIt BT';-inkscape-font-specification:'Futura XBlkIt BT';text-align:center;text-anchor:middle;fill:#ffffff;stroke:#ffccaa;stroke-width:0;stroke-linecap:round;stroke-linejoin:round"><path
             style="color:#000000;-inkscape-font-specification:Teko;stroke:none;stroke-linecap:butt;stroke-linejoin:miter;-inkscape-stroke:none;fill:#ffffff"
             d="m 26.711888,295.00507 h 0.20809 v 1.23025 q 0,0.20123 -0.21495,0.20123 h -0.253825 q -0.214951,0 -0.214951,-0.20123 v -1.23025 h 0.208091 v 1.19824 q 0,0.0412 0.01372,0.0549 0.01372,0.0114 0.05488,0.0114 h 0.130342 q 0.04345,0 0.05488,-0.0114 0.01372,-0.0137 0.01372,-0.0549 z"
             id="path573" /><path
             style="color:#000000;-inkscape-font-specification:Teko;fill:#ffffff;stroke:none;stroke-linecap:butt;stroke-linejoin:miter;-inkscape-stroke:none"
             d="m 26.711888,295.00507 h 0.20809 v 1.23025 c 0,0.13415 -0.07165,0.20123 -0.21495,0.20123 h -0.253825 c -0.143301,0 -0.214951,-0.0671 -0.214951,-0.20123 v -1.23025 h 0.208091 v 1.19824 c 0,0.0275 0.0046,0.0458 0.01372,0.0549 0.0091,0.008 0.02744,0.0114 0.05488,0.0114 h 0.130342 c 0.02897,0 0.04726,-0.004 0.05488,-0.0114 0.0091,-0.009 0.01372,-0.0274 0.01372,-0.0549 z"
             id="path575" /></g><g
           id="path490"
           style="font-size:2.28671px;font-family:'Futura XBlkIt BT';-inkscape-font-specification:'Futura XBlkIt BT';text-align:center;text-anchor:middle;fill:#ffffff;stroke:#ffccaa;stroke-width:0;stroke-linecap:round;stroke-linejoin:round"><path
             style="color:#000000;-inkscape-font-specification:Teko;stroke:none;stroke-linecap:butt;stroke-linejoin:miter;-inkscape-stroke:none;fill:#ffffff"
             d="m 27.562543,296.20331 v -0.34987 q 0,-0.0412 -0.01372,-0.0526 -0.01143,-0.0137 -0.05259,-0.0137 h -0.169217 q -0.20809,0 -0.20809,-0.20352 v -0.37731 q 0,-0.20123 0.212664,-0.20123 h 0.224097 q 0.212664,0 0.212664,0.20123 v 0.21038 h -0.20809 v -0.17836 q 0,-0.0412 -0.01372,-0.0526 -0.01372,-0.0137 -0.05488,-0.0137 h -0.09604 q -0.04116,0 -0.05488,0.0137 -0.01372,0.0114 -0.01372,0.0526 v 0.31785 q 0,0.0412 0.01372,0.0549 0.01372,0.0114 0.05488,0.0114 h 0.16693 q 0.210377,0 0.210377,0.20123 v 0.4116 q 0,0.20123 -0.214951,0.20123 h -0.221811 q -0.212664,0 -0.212664,-0.20123 v -0.21037 h 0.208091 v 0.17836 q 0,0.0412 0.01372,0.0549 0.01372,0.0114 0.05488,0.0114 h 0.09604 q 0.04116,0 0.05259,-0.0114 0.01372,-0.0137 0.01372,-0.0549 z"
             id="path579" /><path
             style="color:#000000;-inkscape-font-specification:Teko;fill:#ffffff;stroke:none;stroke-linecap:butt;stroke-linejoin:miter;-inkscape-stroke:none"
             d="m 27.562543,296.20331 v -0.34987 c 0,-0.0275 -0.0046,-0.045 -0.01372,-0.0526 -0.0076,-0.009 -0.02515,-0.0137 -0.05259,-0.0137 h -0.169217 c -0.138727,0 -0.20809,-0.0678 -0.20809,-0.20352 v -0.37731 c 0,-0.13415 0.07089,-0.20123 0.212664,-0.20123 h 0.224097 c 0.141776,0 0.212664,0.0671 0.212664,0.20123 v 0.21038 h -0.20809 v -0.17836 c 0,-0.0275 -0.0046,-0.045 -0.01372,-0.0526 -0.0091,-0.009 -0.02744,-0.0137 -0.05488,-0.0137 h -0.09604 c -0.02744,0 -0.04573,0.005 -0.05488,0.0137 -0.0091,0.008 -0.01372,0.0251 -0.01372,0.0526 v 0.31785 c 0,0.0275 0.0046,0.0458 0.01372,0.0549 0.0091,0.008 0.02744,0.0114 0.05488,0.0114 h 0.16693 c 0.140251,0 0.210377,0.0671 0.210377,0.20123 v 0.4116 c 0,0.13415 -0.07165,0.20123 -0.214951,0.20123 h -0.221811 c -0.141776,0 -0.212664,-0.0671 -0.212664,-0.20123 v -0.21037 h 0.208091 v 0.17836 c 0,0.0275 0.0046,0.0458 0.01372,0.0549 0.0091,0.008 0.02744,0.0114 0.05488,0.0114 h 0.09604 c 0.02744,0 0.04497,-0.004 0.05259,-0.0114 0.0091,-0.009 0.01372,-0.0274 0.01372,-0.0549 z"
             id="path581" /></g></g></g></g></svg>
