<?xml version="1.0" encoding="UTF-8" standalone="no"?>
<!-- Created with Inkscape (http://www.inkscape.org/) -->

<svg
   width="748"
   height="48"
   viewBox="0 0 197.90833 12.7"
   version="1.1"
   id="svg5"
   inkscape:version="1.2.2 (b0a8486541, 2022-12-01)"
   sodipodi:docname="request_unupdatable_logo.svg"
   xml:space="preserve"
   xmlns:inkscape="http://www.inkscape.org/namespaces/inkscape"
   xmlns:sodipodi="http://sodipodi.sourceforge.net/DTD/sodipodi-0.dtd"
   xmlns="http://www.w3.org/2000/svg"
   xmlns:svg="http://www.w3.org/2000/svg"><sodipodi:namedview
     id="namedview7"
     pagecolor="#ffffff"
     bordercolor="#000000"
     borderopacity="0.25"
     inkscape:showpageshadow="false"
     inkscape:pageopacity="0.0"
     inkscape:pagecheckerboard="0"
     inkscape:deskcolor="#d1d1d1"
     inkscape:document-units="px"
     showgrid="false"
     inkscape:zoom="1.4271465"
     inkscape:cx="285.53481"
     inkscape:cy="71.821638"
     inkscape:window-width="2527"
     inkscape:window-height="1408"
     inkscape:window-x="33"
     inkscape:window-y="0"
     inkscape:window-maximized="1"
     inkscape:current-layer="g347" /><defs
     id="defs2">
			
			
			
			
			
			
			
		
				
				
				
				
			
				
				
				
			
					
					
				
					
					
					
				
		
		
	
	
	
	

		
		
		
		
		
		
		
		
	
		
		
		
		
		
		
		
		
	</defs><g
     inkscape:label="Livello 1"
     inkscape:groupmode="layer"
     id="layer1"><g
       id="g347"
       transform="matrix(0.04446936,0,0,0.04446936,6.3827961,3.4111066)">
	
	
<g
   id="g15576"
   transform="translate(1763.5427)"><circle
     style="fill:#4662d9;fill-opacity:1;stroke-width:0.534551"
     cx="-0.1050816"
     cy="66.088051"
     r="136.84515"
     id="circle15288" /><path
     style="fill:#2a49ad;fill-opacity:1;stroke-width:0.534551"
     d="m -54.243913,119.45606 80.861056,80.86106 C 80.758112,189.59883 123.40676,146.94911 134.12505,92.808672 L 53.957309,12.64093 Z"
     id="path15290" /><circle
     style="fill:#ffc61b;stroke-width:0.534551"
     cx="-0.1050816"
     cy="66.088051"
     r="76.024971"
     id="circle15292" /><path
     style="fill:#eaa22f;stroke-width:0.534551"
     d="m 75.919888,66.088051 c 0,-41.986874 -34.037026,-76.0249688 -76.0249696,-76.0249688 V 142.11302 c 41.9879436,0 76.0249696,-34.03809 76.0249696,-76.024969 z"
     id="path15294" /><circle
     style="fill:#ffedb5;stroke-width:0.534551"
     cx="-30.515181"
     cy="50.88327"
     r="15.204781"
     id="circle15296" /><circle
     style="fill:#272525;stroke-width:0.534551"
     cx="-30.515181"
     cy="50.88327"
     r="7.6023903"
     id="circle15298" /><circle
     style="fill:#ffedb5;stroke-width:0.534551"
     cx="30.305017"
     cy="50.88327"
     r="15.204781"
     id="circle15300" /><circle
     style="fill:#272525;stroke-width:0.534551"
     cx="30.305017"
     cy="50.88327"
     r="7.6023903"
     id="circle15302" /><path
     style="fill:#c92f00;stroke-width:0.534551"
     d="m 33.528358,108.56351 c -1.57853,0 -3.038925,-1.021 -3.523763,-2.60968 C 26.231731,93.60355 13.849383,84.979098 -0.1061507,84.979098 c -13.9544643,0 -26.3362783,8.624452 -30.1107463,20.974732 -0.59549,1.9463 -2.655116,3.04213 -4.601953,2.44771 -1.94737,-0.59549 -3.042666,-2.65565 -2.44771,-4.60196 4.713674,-15.421804 19.994895,-26.19248 37.1604093,-26.19248 17.1676527,0 32.4483387,10.770676 37.1598747,26.19248 0.595491,1.94631 -0.501409,4.00754 -2.44771,4.60196 -0.35815,0.10958 -0.72111,0.16197 -1.077656,0.16197 z"
     id="path15304" /><path
     style="fill:#930000;stroke-width:0.534551"
     d="M 37.054794,103.79905 C 32.342188,88.377241 17.061502,77.606565 -0.1061507,77.606565 c -0.10209932,0 -0.20366409,0.0053 -0.3057634,0.0053 v 7.377879 c 0.10209931,-0.0011 0.20366408,-0.01176 0.3057634,-0.01176 13.9555337,0 26.3368127,8.624452 30.1107457,20.974736 0.484838,1.58868 1.945233,2.60968 3.523763,2.60968 0.356546,0 0.718972,-0.0524 1.07819,-0.16197 1.947371,-0.59442 3.042667,-2.65512 2.448246,-4.60142 z"
     id="path15306" /><path
     d="M 250.67563,93.809553 V 38.366541 q 0,-3.505018 -3.98297,-3.505018 h -6.6914 q -3.98297,0 -3.98297,3.505018 v 55.443012 q 0,3.505018 3.98297,3.505018 h 6.6914 q 3.98297,0 3.98297,-3.505018 z M 231.55735,14.946648 h 23.57922 q 23.41989,0 23.41989,19.755556 V 97.47389 q 0,19.75556 -23.41989,19.75556 h -23.57922 q -23.41989,0 -23.41989,-19.75556 V 34.702204 q 0,-19.755556 23.41989,-19.755556 z"
     id="path15510"
     style="font-weight:bold;font-size:159.319px;font-family:Teko;-inkscape-font-specification:'Teko Bold';text-align:center;text-anchor:middle;fill:#ff803b;stroke-width:24.7513;stroke-linecap:round;stroke-linejoin:round" /><path
     d="M 332.88436,93.809553 V 38.366541 q 0,-3.505018 -3.98298,-3.505018 h -6.69139 q -3.98298,0 -3.98298,3.505018 v 55.443012 q 0,3.505018 3.98298,3.505018 h 6.69139 q 3.98298,0 3.98298,-3.505018 z M 313.76608,14.946648 h 23.57921 q 23.41989,0 23.41989,19.755556 V 97.47389 q 0,19.75556 -23.41989,19.75556 h -23.57921 q -23.41989,0 -23.41989,-19.75556 V 34.702204 q 0,-19.755556 23.41989,-19.755556 z"
     id="path15512"
     style="font-weight:bold;font-size:159.319px;font-family:Teko;-inkscape-font-specification:'Teko Bold';text-align:center;text-anchor:middle;fill:#ff803b;stroke-width:24.7513;stroke-linecap:round;stroke-linejoin:round" /><path
     d="M 415.09308,93.809553 V 38.366541 q 0,-3.505018 -3.98297,-3.505018 h -6.6914 q -3.98297,0 -3.98297,3.505018 v 55.443012 q 0,3.505018 3.98297,3.505018 h 6.6914 q 3.98297,0 3.98297,-3.505018 z M 395.9748,14.946648 h 23.57922 q 23.41989,0 23.41989,19.755556 V 97.47389 q 0,19.75556 -23.41989,19.75556 H 395.9748 q -23.41989,0 -23.41989,-19.75556 V 34.702204 q 0,-19.755556 23.41989,-19.755556 z"
     id="path15514"
     style="font-weight:bold;font-size:159.319px;font-family:Teko;-inkscape-font-specification:'Teko Bold';text-align:center;text-anchor:middle;fill:#ff803b;stroke-width:24.7513;stroke-linecap:round;stroke-linejoin:round" /><path
     d="M 498.0984,60.352563 V 38.366541 q 0,-3.505018 -3.98297,-3.505018 h -10.99301 v 28.996058 h 10.99301 q 3.98297,0 3.98297,-3.505018 z M 455.24159,14.946648 h 47.31775 q 23.41989,0 23.41989,19.755556 V 64.0169 q 0,19.755556 -23.41989,19.755556 h -19.43692 v 33.456994 h -27.88083 z"
     id="path15516"
     style="font-weight:bold;font-size:159.319px;font-family:Teko;-inkscape-font-specification:'Teko Bold';text-align:center;text-anchor:middle;fill:#ff803b;stroke-width:24.7513;stroke-linecap:round;stroke-linejoin:round" /><path
     d="M 574.7308,93.809553 V 79.311524 q 0,-3.505018 -3.98297,-3.505018 h -15.29462 q -11.78961,0 -16.7285,-5.098208 -4.77957,-5.257527 -4.77957,-14.975986 V 34.702204 q 0,-19.755556 23.26057,-19.755556 h 21.82671 q 23.26057,0 23.26057,19.755556 v 12.267563 h -27.88082 v -8.603226 q 0,-3.505018 -3.98298,-3.505018 h -4.62025 q -3.98297,0 -3.98297,3.505018 v 15.135305 q 0,3.505018 3.98297,3.505018 h 14.97599 q 11.7896,0 16.72849,4.938889 5.09821,4.938889 5.09821,14.498029 V 97.47389 q 0,19.75556 -23.26057,19.75556 h -21.66739 q -23.41989,0 -23.41989,-19.75556 V 85.206327 h 27.88082 v 8.603226 q 0,3.505018 3.98298,3.505018 h 4.62025 q 3.98297,0 3.98297,-3.505018 z"
     id="path15518"
     style="font-weight:bold;font-size:159.319px;font-family:Teko;-inkscape-font-specification:'Teko Bold';text-align:center;text-anchor:middle;fill:#ff803b;stroke-width:24.7513;stroke-linecap:round;stroke-linejoin:round" /><path
     d="m 647.22094,14.946648 h 31.38584 l -4.77957,65.161471 h -21.8267 z m 1.91182,102.282802 V 91.10113 h 27.40287 v 26.12832 z"
     id="path15520"
     style="font-weight:bold;font-size:159.319px;font-family:Teko;-inkscape-font-specification:'Teko Bold';text-align:center;text-anchor:middle;fill:#ff803b;stroke-width:24.7513;stroke-linecap:round;stroke-linejoin:round" /><path
     d="m 694.53881,14.946648 h 31.38584 l -4.77957,65.161471 h -21.8267 z m 1.91183,102.282802 V 91.10113 h 27.40286 v 26.12832 z"
     id="path15522"
     style="font-weight:bold;font-size:159.319px;font-family:Teko;-inkscape-font-specification:'Teko Bold';text-align:center;text-anchor:middle;fill:#ff803b;stroke-width:24.7513;stroke-linecap:round;stroke-linejoin:round" /><path
     d="m 741.85668,14.946648 h 31.38584 l -4.77957,65.161471 h -21.8267 z m 1.91183,102.282802 V 91.10113 h 27.40287 v 26.12832 z"
     id="path15524"
     style="font-weight:bold;font-size:159.319px;font-family:Teko;-inkscape-font-specification:'Teko Bold';text-align:center;text-anchor:middle;fill:#ff803b;stroke-width:24.7513;stroke-linecap:round;stroke-linejoin:round" /></g></g></g></svg>
