<?xml version="1.0" encoding="UTF-8" standalone="no"?>
<!-- Created with Inkscape (http://www.inkscape.org/) -->

<svg
   width="748"
   height="512"
   viewBox="0 0 197.90833 135.46667"
   version="1.1"
   id="svg4045"
   inkscape:version="1.2.2 (b0a8486541, 2022-12-01)"
   sodipodi:docname="theme.svg"
   xmlns:inkscape="http://www.inkscape.org/namespaces/inkscape"
   xmlns:sodipodi="http://sodipodi.sourceforge.net/DTD/sodipodi-0.dtd"
   xmlns="http://www.w3.org/2000/svg"
   xmlns:svg="http://www.w3.org/2000/svg">
  <sodipodi:namedview
     id="namedview4047"
     pagecolor="#ffffff"
     bordercolor="#000000"
     borderopacity="0.25"
     inkscape:showpageshadow="false"
     inkscape:pageopacity="0.0"
     inkscape:pagecheckerboard="0"
     inkscape:deskcolor="#d1d1d1"
     inkscape:document-units="px"
     showgrid="false"
     inkscape:zoom="6.1430595"
     inkscape:cx="115.98455"
     inkscape:cy="406.55638"
     inkscape:window-width="2527"
     inkscape:window-height="1408"
     inkscape:window-x="33"
     inkscape:window-y="0"
     inkscape:window-maximized="1"
     inkscape:current-layer="layer1" />
  <defs
     id="defs4042" />
  <g
     inkscape:label="Livello 1"
     inkscape:groupmode="layer"
     id="layer1">
    <rect
       style="fill:#4662d9;fill-opacity:1;stroke:#ffccaa;stroke-width:0;stroke-linecap:round;stroke-linejoin:round"
       id="rect5577"
       width="8.0895596"
       height="8.0895596"
       x="14.447083"
       y="14.525308" />
    <rect
       style="fill:#706aff;fill-opacity:1;stroke:#ffccaa;stroke-width:0;stroke-linecap:round;stroke-linejoin:round"
       id="rect5579"
       width="8.0895596"
       height="8.0895596"
       x="14.447083"
       y="22.614866" />
    <rect
       style="fill:#d946ad;fill-opacity:1;stroke:#ffccaa;stroke-width:0;stroke-linecap:round;stroke-linejoin:round"
       id="rect5581"
       width="8.0895596"
       height="8.0895596"
       x="14.447083"
       y="30.704426" />
    <rect
       style="fill:#fd7cff;fill-opacity:1;stroke:#ffccaa;stroke-width:0;stroke-linecap:round;stroke-linejoin:round"
       id="rect5583"
       width="8.0895596"
       height="8.0895596"
       x="14.447083"
       y="38.793987" />
    <rect
       style="fill:#ff524e;fill-opacity:1;stroke:#ffccaa;stroke-width:0;stroke-linecap:round;stroke-linejoin:round"
       id="rect5585"
       width="8.0895596"
       height="8.0895596"
       x="14.447083"
       y="46.883545" />
    <rect
       style="fill:#ff803b;fill-opacity:1;stroke:#ffccaa;stroke-width:0;stroke-linecap:round;stroke-linejoin:round"
       id="rect5587"
       width="8.0895596"
       height="8.0895596"
       x="14.447083"
       y="54.973106" />
    <rect
       style="fill:#f2e20f;fill-opacity:1;stroke:#ffccaa;stroke-width:0;stroke-linecap:round;stroke-linejoin:round"
       id="rect5589"
       width="8.0895596"
       height="8.0895596"
       x="14.447083"
       y="63.062668" />
    <rect
       style="fill:#1cad1f;fill-opacity:1;stroke:#ffccaa;stroke-width:0;stroke-linecap:round;stroke-linejoin:round"
       id="rect5591"
       width="8.0895596"
       height="8.0895596"
       x="14.447083"
       y="71.152222" />
    <path
       d="m 25.348171,19.573195 v -1.229616 q 0,-0.07334 -0.02589,-0.09923 -0.02589,-0.02589 -0.103546,-0.02589 h -0.151006 q -0.07766,0 -0.112175,0.03451 -0.0302,0.03452 -0.0302,0.11649 v 1.177842 q 0,0.08197 0.0302,0.11649 0.03452,0.03451 0.112175,0.03451 h 0.151006 q 0.07766,0 0.103546,-0.02157 0.02589,-0.02589 0.02589,-0.103546 z m -0.15532,-1.669689 h 0.151006 q 0.392614,0 0.392614,0.383986 v 1.346105 q 0,0.379671 -0.392614,0.379671 h -0.151006 q -0.211407,0 -0.267495,-0.168264 v 0.168264 h -0.3883 v -2.886361 h 0.3883 v 0.944863 q 0.05609,-0.168264 0.267495,-0.168264 z"
       id="path17341"
       style="font-size:4.31444px;font-family:Teko;-inkscape-font-specification:Teko;text-align:center;text-anchor:middle;fill:#333333;stroke:#ffccaa;stroke-width:0;stroke-linecap:round;stroke-linejoin:round" />
    <path
       d="m 26.478557,20.013268 h -0.3883 v -2.886361 h 0.3883 z"
       id="path17343"
       style="font-size:4.31444px;font-family:Teko;-inkscape-font-specification:Teko;text-align:center;text-anchor:middle;fill:#333333;stroke:#ffccaa;stroke-width:0;stroke-linecap:round;stroke-linejoin:round" />
    <path
       d="m 27.665026,17.907821 h 0.388299 v 2.105447 h -0.388299 v -0.168264 q -0.05609,0.168264 -0.267496,0.168264 h -0.155319 q -0.3883,0 -0.3883,-0.379671 v -1.725776 h 0.3883 v 1.665374 q 0,0.07766 0.02589,0.103546 0.02589,0.02157 0.103547,0.02157 h 0.151005 q 0.07766,0 0.107861,-0.03451 0.03452,-0.03452 0.03452,-0.11649 z"
       id="path17345"
       style="font-size:4.31444px;font-family:Teko;-inkscape-font-specification:Teko;text-align:center;text-anchor:middle;fill:#333333;stroke:#ffccaa;stroke-width:0;stroke-linecap:round;stroke-linejoin:round" />
    <path
       d="m 28.804037,18.796596 h 0.465959 v -0.457331 q 0,-0.07335 -0.02589,-0.09923 -0.02157,-0.02589 -0.09923,-0.02589 H 28.93347 q -0.07766,0 -0.103547,0.02589 -0.02589,0.02589 -0.02589,0.09923 z m 0.02157,-0.888775 h 0.422815 q 0.405557,0 0.405557,0.383985 v 0.789543 h -0.849944 v 0.500475 q 0,0.07334 0.02589,0.09923 0.02589,0.02589 0.103547,0.02589 h 0.198464 q 0.07766,0 0.103547,-0.02589 0.02589,-0.02589 0.02589,-0.103547 V 19.40493 h 0.379671 v 0.228665 q 0,0.379671 -0.401243,0.379671 h -0.414186 q -0.401243,0 -0.401243,-0.379671 v -1.341791 q 0,-0.383985 0.401243,-0.383985 z"
       id="path17347"
       style="font-size:4.31444px;font-family:Teko;-inkscape-font-specification:Teko;text-align:center;text-anchor:middle;fill:#333333;stroke:#ffccaa;stroke-width:0;stroke-linecap:round;stroke-linejoin:round" />
    <path
       d="m 24.933983,27.807287 h -0.388299 v -2.105446 h 0.388299 z m -0.396928,-2.506689 v -0.383985 h 0.405557 v 0.383985 z"
       id="path17350"
       style="font-size:4.31444px;font-family:Teko;-inkscape-font-specification:Teko;text-align:center;text-anchor:middle;fill:#333333;stroke:#ffccaa;stroke-width:0;stroke-linecap:round;stroke-linejoin:round" />
    <path
       d="m 25.969446,25.701841 h 0.151006 q 0.392614,0 0.392614,0.383985 v 1.721461 h -0.3883 v -1.665374 q 0,-0.07766 -0.02589,-0.09923 -0.02589,-0.02589 -0.103547,-0.02589 h -0.151005 q -0.07766,0 -0.112176,0.03452 -0.0302,0.03452 -0.0302,0.11649 v 1.639487 h -0.388299 v -2.105446 h 0.388299 v 0.168263 q 0.05609,-0.168263 0.267495,-0.168263 z"
       id="path17352"
       style="font-size:4.31444px;font-family:Teko;-inkscape-font-specification:Teko;text-align:center;text-anchor:middle;fill:#333333;stroke:#ffccaa;stroke-width:0;stroke-linecap:round;stroke-linejoin:round" />
    <path
       d="m 27.380267,27.492333 h 0.151006 q 0.07766,0 0.107861,-0.03451 0.03452,-0.03452 0.03452,-0.11649 v -1.177842 q 0,-0.08197 -0.03452,-0.11649 -0.0302,-0.03452 -0.107861,-0.03452 h -0.151006 q -0.07766,0 -0.103546,0.02589 -0.02589,0.02589 -0.02589,0.09923 v 1.229615 q 0,0.07766 0.02589,0.103547 0.02589,0.02157 0.103546,0.02157 z m 0.293382,-2.571406 h 0.3883 v 2.88636 h -0.3883 v -0.168263 q -0.05609,0.168263 -0.267495,0.168263 h -0.15532 q -0.388299,0 -0.388299,-0.37967 v -1.346106 q 0,-0.383985 0.388299,-0.383985 h 0.15532 q 0.211408,0 0.267495,0.168263 z"
       id="path17354"
       style="font-size:4.31444px;font-family:Teko;-inkscape-font-specification:Teko;text-align:center;text-anchor:middle;fill:#333333;stroke:#ffccaa;stroke-width:0;stroke-linecap:round;stroke-linejoin:round" />
    <path
       d="m 28.829922,27.807287 h -0.3883 v -2.105446 h 0.3883 z m -0.396929,-2.506689 v -0.383985 h 0.405558 v 0.383985 z"
       id="path17356"
       style="font-size:4.31444px;font-family:Teko;-inkscape-font-specification:Teko;text-align:center;text-anchor:middle;fill:#333333;stroke:#ffccaa;stroke-width:0;stroke-linecap:round;stroke-linejoin:round" />
    <path
       d="m 29.701436,27.466446 h 0.151006 q 0.07766,0 0.107861,-0.03452 0.03451,-0.03452 0.03451,-0.11649 V 26.1678 q 0,-0.08197 -0.03451,-0.11649 -0.0302,-0.03452 -0.107861,-0.03452 h -0.151006 q -0.07766,0 -0.103546,0.02589 -0.02589,0.02157 -0.02589,0.09923 v 1.199415 q 0,0.07334 0.02589,0.09923 0.02589,0.02589 0.103546,0.02589 z m 0.293382,-1.764605 h 0.3883 v 2.321168 q 0,0.379671 -0.405558,0.379671 h -0.720511 v -0.306325 h 0.608336 q 0.07766,0 0.103546,-0.02589 0.02589,-0.02589 0.02589,-0.09923 V 27.613136 Q 29.938731,27.7814 29.727326,27.7814 h -0.15532 q -0.3883,0 -0.3883,-0.383986 v -1.311589 q 0,-0.383985 0.3883,-0.383985 h 0.15532 q 0.211407,0 0.267495,0.168263 z"
       id="path17358"
       style="font-size:4.31444px;font-family:Teko;-inkscape-font-specification:Teko;text-align:center;text-anchor:middle;fill:#333333;stroke:#ffccaa;stroke-width:0;stroke-linecap:round;stroke-linejoin:round" />
    <path
       d="m 31.61705,27.371529 v -1.23393 q 0,-0.07766 -0.02589,-0.103547 -0.02589,-0.02589 -0.103547,-0.02589 h -0.237294 q -0.07766,0 -0.103547,0.02589 -0.02157,0.02589 -0.02157,0.103547 v 1.23393 q 0,0.07766 0.02157,0.103546 0.02589,0.02589 0.103547,0.02589 h 0.237294 q 0.07766,0 0.103547,-0.02589 0.02589,-0.02589 0.02589,-0.103546 z m -0.478902,-1.669688 h 0.461645 q 0.401242,0 0.401242,0.383985 v 1.341791 q 0,0.37967 -0.401242,0.37967 h -0.461645 q -0.396929,0 -0.396929,-0.37967 v -1.341791 q 0,-0.383985 0.396929,-0.383985 z"
       id="path17360"
       style="font-size:4.31444px;font-family:Teko;-inkscape-font-specification:Teko;text-align:center;text-anchor:middle;fill:#333333;stroke:#ffccaa;stroke-width:0;stroke-linecap:round;stroke-linejoin:round" />
    <path
       d="m 25.34817,35.454619 v -1.225301 q 0,-0.07766 -0.02589,-0.09923 -0.02589,-0.02589 -0.103547,-0.02589 h -0.151005 q -0.07766,0 -0.112176,0.03451 -0.0302,0.03452 -0.0302,0.11649 v 1.173528 q 0,0.08197 0.0302,0.11649 0.03452,0.03451 0.112176,0.03451 h 0.151005 q 0.07766,0 0.103547,-0.02157 0.02589,-0.02589 0.02589,-0.103546 z m -0.15532,-1.665374 h 0.151006 q 0.392614,0 0.392614,0.383985 v 1.341791 q 0,0.37967 -0.392614,0.37967 H 25.19285 q -0.211407,0 -0.267495,-0.168263 v 0.763656 h -0.388299 v -2.700839 h 0.388299 v 0.168263 q 0.05609,-0.168263 0.267495,-0.168263 z"
       id="path17363"
       style="font-size:4.31444px;font-family:Teko;-inkscape-font-specification:Teko;text-align:center;text-anchor:middle;fill:#333333;stroke:#ffccaa;stroke-width:0;stroke-linecap:round;stroke-linejoin:round" />
    <path
       d="m 26.897057,33.789245 h 0.388299 v 2.105446 h -0.388299 v -0.168263 q -0.05609,0.168263 -0.267495,0.168263 h -0.15532 q -0.3883,0 -0.3883,-0.37967 v -1.725776 h 0.3883 v 1.665374 q 0,0.07766 0.02589,0.103546 0.02589,0.02157 0.103547,0.02157 h 0.151005 q 0.07766,0 0.107861,-0.03451 0.03452,-0.03452 0.03452,-0.11649 z"
       id="path17365"
       style="font-size:4.31444px;font-family:Teko;-inkscape-font-specification:Teko;text-align:center;text-anchor:middle;fill:#333333;stroke:#ffccaa;stroke-width:0;stroke-linecap:round;stroke-linejoin:round" />
    <path
       d="m 28.394166,33.78493 h 0.08629 v 0.336527 h -0.15532 q -0.271809,0 -0.271809,0.319268 v 1.453966 h -0.3883 v -2.105446 h 0.3883 v 0.258866 q 0.03452,-0.112175 0.120804,-0.185521 0.0906,-0.07766 0.220036,-0.07766 z"
       id="path17367"
       style="font-size:4.31444px;font-family:Teko;-inkscape-font-specification:Teko;text-align:center;text-anchor:middle;fill:#333333;stroke:#ffccaa;stroke-width:0;stroke-linecap:round;stroke-linejoin:round" />
    <path
       d="m 29.502981,35.454619 v -1.225301 q 0,-0.07766 -0.02589,-0.09923 -0.02589,-0.02589 -0.103547,-0.02589 h -0.151005 q -0.07766,0 -0.112176,0.03451 -0.0302,0.03452 -0.0302,0.11649 v 1.173528 q 0,0.08197 0.0302,0.11649 0.03452,0.03451 0.112176,0.03451 h 0.151005 q 0.07766,0 0.103547,-0.02157 0.02589,-0.02589 0.02589,-0.103546 z m -0.15532,-1.665374 h 0.151006 q 0.392614,0 0.392614,0.383985 v 1.341791 q 0,0.37967 -0.392614,0.37967 h -0.151006 q -0.211407,0 -0.267495,-0.168263 v 0.763656 h -0.3883 v -2.700839 h 0.3883 v 0.168263 q 0.05609,-0.168263 0.267495,-0.168263 z"
       id="path17369"
       style="font-size:4.31444px;font-family:Teko;-inkscape-font-specification:Teko;text-align:center;text-anchor:middle;fill:#333333;stroke:#ffccaa;stroke-width:0;stroke-linecap:round;stroke-linejoin:round" />
    <path
       d="m 30.633367,35.894691 h -0.3883 v -2.88636 h 0.3883 z"
       id="path17371"
       style="font-size:4.31444px;font-family:Teko;-inkscape-font-specification:Teko;text-align:center;text-anchor:middle;fill:#333333;stroke:#ffccaa;stroke-width:0;stroke-linecap:round;stroke-linejoin:round" />
    <path
       d="m 31.384077,34.678019 h 0.46596 v -0.45733 q 0,-0.07335 -0.02589,-0.09923 -0.02157,-0.02589 -0.09923,-0.02589 H 31.51351 q -0.07766,0 -0.103546,0.02589 -0.02589,0.02589 -0.02589,0.09923 z m 0.02157,-0.888774 h 0.422816 q 0.405557,0 0.405557,0.383985 v 0.789542 h -0.849945 v 0.500475 q 0,0.07335 0.02589,0.09923 0.02589,0.02589 0.103546,0.02589 h 0.198465 q 0.07766,0 0.103546,-0.02589 0.02589,-0.02589 0.02589,-0.103547 v -0.172578 h 0.379671 v 0.228666 q 0,0.37967 -0.401243,0.37967 h -0.414187 q -0.401242,0 -0.401242,-0.37967 V 34.17323 q 0,-0.383985 0.401242,-0.383985 z"
       id="path17373"
       style="font-size:4.31444px;font-family:Teko;-inkscape-font-specification:Teko;text-align:center;text-anchor:middle;fill:#333333;stroke:#ffccaa;stroke-width:0;stroke-linecap:round;stroke-linejoin:round" />
    <path
       d="m 25.34817,43.546332 v -1.225301 q 0,-0.07766 -0.02589,-0.09923 -0.02589,-0.02589 -0.103547,-0.02589 h -0.151005 q -0.07766,0 -0.112175,0.03451 -0.0302,0.03452 -0.0302,0.11649 v 1.173528 q 0,0.08197 0.0302,0.11649 0.03451,0.03451 0.112175,0.03451 h 0.151005 q 0.07766,0 0.103547,-0.02157 0.02589,-0.02589 0.02589,-0.103546 z m -0.15532,-1.665374 h 0.151005 q 0.392614,0 0.392614,0.383985 v 1.341791 q 0,0.37967 -0.392614,0.37967 H 25.19285 q -0.211408,0 -0.267495,-0.168263 v 0.763656 h -0.3883 v -2.700839 h 0.3883 v 0.168263 q 0.05609,-0.168263 0.267495,-0.168263 z"
       id="path17376"
       style="font-size:4.31444px;font-family:Teko;-inkscape-font-specification:Teko;text-align:center;text-anchor:middle;fill:#333333;stroke:#ffccaa;stroke-width:0;stroke-linecap:round;stroke-linejoin:round" />
    <path
       d="m 26.478555,43.986404 h -0.388299 v -2.105446 h 0.388299 z M 26.081627,41.479715 V 41.09573 h 0.405557 v 0.383985 z"
       id="path17378"
       style="font-size:4.31444px;font-family:Teko;-inkscape-font-specification:Teko;text-align:center;text-anchor:middle;fill:#333333;stroke:#ffccaa;stroke-width:0;stroke-linecap:round;stroke-linejoin:round" />
    <path
       d="m 27.514019,41.880958 h 0.151005 q 0.392614,0 0.392614,0.383985 v 1.721461 h -0.388299 v -1.665373 q 0,-0.07766 -0.02589,-0.09923 -0.02589,-0.02589 -0.103546,-0.02589 H 27.3889 q -0.07766,0 -0.112175,0.03451 -0.0302,0.03452 -0.0302,0.11649 v 1.639487 h -0.3883 v -2.105446 h 0.3883 v 0.168263 q 0.05609,-0.168263 0.267495,-0.168263 z"
       id="path17380"
       style="font-size:4.31444px;font-family:Teko;-inkscape-font-specification:Teko;text-align:center;text-anchor:middle;fill:#333333;stroke:#ffccaa;stroke-width:0;stroke-linecap:round;stroke-linejoin:round" />
    <path
       d="m 28.432994,43.986404 v -2.88636 h 0.388299 v 2.88636 z m 1.337476,-2.105446 -0.483217,1.005264 0.483217,1.100182 h -0.414186 l -0.46596,-1.100182 0.46596,-1.005264 z"
       id="path17382"
       style="font-size:4.31444px;font-family:Teko;-inkscape-font-specification:Teko;text-align:center;text-anchor:middle;fill:#333333;stroke:#ffccaa;stroke-width:0;stroke-linecap:round;stroke-linejoin:round" />
    <path
       d="m 25.266196,50.261749 h 0.08629 v 0.336526 h -0.15532 q -0.27181,0 -0.27181,0.319268 v 1.453967 h -0.3883 v -2.105447 h 0.3883 v 0.258866 q 0.03452,-0.112175 0.120804,-0.185521 0.0906,-0.07766 0.220037,-0.07766 z"
       id="path17385"
       style="font-size:4.31444px;font-family:Teko;-inkscape-font-specification:Teko;text-align:center;text-anchor:middle;fill:#333333;stroke:#ffccaa;stroke-width:0;stroke-linecap:round;stroke-linejoin:round" />
    <path
       d="m 25.934938,51.154838 h 0.465959 v -0.457331 q 0,-0.07335 -0.02589,-0.09923 -0.02157,-0.02589 -0.09923,-0.02589 H 26.06437 q -0.07766,0 -0.103547,0.02589 -0.02589,0.02589 -0.02589,0.09923 z m 0.02157,-0.888775 h 0.422815 q 0.405557,0 0.405557,0.383985 v 0.789543 h -0.849944 v 0.500475 q 0,0.07334 0.02589,0.09923 0.02589,0.02589 0.103547,0.02589 h 0.198464 q 0.07766,0 0.103547,-0.02589 0.02589,-0.02589 0.02589,-0.103547 v -0.172577 h 0.379671 v 0.228665 q 0,0.379671 -0.401243,0.379671 H 25.95651 q -0.401243,0 -0.401243,-0.379671 v -1.341791 q 0,-0.383985 0.401243,-0.383985 z"
       id="path17387"
       style="font-size:4.31444px;font-family:Teko;-inkscape-font-specification:Teko;text-align:center;text-anchor:middle;fill:#333333;stroke:#ffccaa;stroke-width:0;stroke-linecap:round;stroke-linejoin:round" />
    <path
       d="m 27.608943,52.056555 h 0.151005 q 0.07766,0 0.107861,-0.03452 0.03452,-0.03452 0.03452,-0.11649 v -1.177842 q 0,-0.08197 -0.03452,-0.11649 -0.0302,-0.03451 -0.107861,-0.03451 h -0.151005 q -0.07766,0 -0.103547,0.02589 -0.02589,0.02589 -0.02589,0.09923 v 1.229616 q 0,0.07766 0.02589,0.103546 0.02589,0.02157 0.103547,0.02157 z m 0.293382,-2.571406 h 0.388299 v 2.886361 h -0.388299 v -0.168264 q -0.05609,0.168264 -0.267495,0.168264 h -0.15532 q -0.3883,0 -0.3883,-0.379671 v -1.346105 q 0,-0.383985 0.3883,-0.383985 h 0.15532 q 0.211407,0 0.267495,0.168263 z"
       id="path17389"
       style="font-size:4.31444px;font-family:Teko;-inkscape-font-specification:Teko;text-align:center;text-anchor:middle;fill:#333333;stroke:#ffccaa;stroke-width:0;stroke-linecap:round;stroke-linejoin:round" />
    <path
       d="m 25.412888,59.339308 v -1.23393 q 0,-0.07766 -0.02589,-0.103546 -0.02589,-0.02589 -0.103546,-0.02589 h -0.237294 q -0.07766,0 -0.103547,0.02589 -0.02157,0.02589 -0.02157,0.103546 v 1.23393 q 0,0.07766 0.02157,0.103547 0.02589,0.02589 0.103547,0.02589 h 0.237294 q 0.07766,0 0.103546,-0.02589 0.02589,-0.02589 0.02589,-0.103547 z M 24.933985,57.66962 h 0.461645 q 0.401243,0 0.401243,0.383985 v 1.341791 q 0,0.37967 -0.401243,0.37967 h -0.461645 q -0.396928,0 -0.396928,-0.37967 v -1.341791 q 0,-0.383985 0.396928,-0.383985 z"
       id="path17392"
       style="font-size:4.31444px;font-family:Teko;-inkscape-font-specification:Teko;text-align:center;text-anchor:middle;fill:#333333;stroke:#ffccaa;stroke-width:0;stroke-linecap:round;stroke-linejoin:round" />
    <path
       d="m 26.884116,57.665305 h 0.08629 v 0.336527 h -0.155319 q -0.27181,0 -0.27181,0.319268 v 1.453966 h -0.3883 V 57.66962 h 0.3883 v 0.258866 q 0.03451,-0.112175 0.120804,-0.185521 0.0906,-0.07766 0.220037,-0.07766 z"
       id="path17394"
       style="font-size:4.31444px;font-family:Teko;-inkscape-font-specification:Teko;text-align:center;text-anchor:middle;fill:#333333;stroke:#ffccaa;stroke-width:0;stroke-linecap:round;stroke-linejoin:round" />
    <path
       d="m 27.673662,59.460112 h 0.151005 q 0.07766,0 0.107861,-0.03451 0.03452,-0.03452 0.03452,-0.11649 v -1.173528 q 0,-0.08197 -0.03452,-0.11649 -0.0302,-0.03451 -0.107861,-0.03451 h -0.151005 q -0.07766,0 -0.103547,0.02589 -0.02589,0.02157 -0.02589,0.09923 v 1.225301 q 0,0.07766 0.02589,0.103546 0.02589,0.02157 0.103547,0.02157 z m 0.293382,-1.790492 h 0.388299 v 2.105446 h -0.388299 v -0.168263 q -0.05609,0.168263 -0.267496,0.168263 h -0.155319 q -0.3883,0 -0.3883,-0.37967 v -1.341791 q 0,-0.383985 0.3883,-0.383985 h 0.155319 q 0.211408,0 0.267496,0.168263 z"
       id="path17396"
       style="font-size:4.31444px;font-family:Teko;-inkscape-font-specification:Teko;text-align:center;text-anchor:middle;fill:#333333;stroke:#ffccaa;stroke-width:0;stroke-linecap:round;stroke-linejoin:round" />
    <path
       d="m 29.390812,57.66962 h 0.151005 q 0.392614,0 0.392614,0.383985 v 1.721461 h -0.3883 v -1.665373 q 0,-0.07766 -0.02589,-0.09923 -0.02589,-0.02589 -0.103547,-0.02589 h -0.151005 q -0.07766,0 -0.112176,0.03451 -0.0302,0.03452 -0.0302,0.11649 v 1.639487 h -0.388296 v -2.10544 h 0.388299 v 0.168263 q 0.05609,-0.168263 0.267496,-0.168263 z"
       id="path17398"
       style="font-size:4.31444px;font-family:Teko;-inkscape-font-specification:Teko;text-align:center;text-anchor:middle;fill:#333333;stroke:#ffccaa;stroke-width:0;stroke-linecap:round;stroke-linejoin:round" />
    <path
       d="m 30.801632,59.434226 h 0.151006 q 0.07766,0 0.107861,-0.03452 0.03451,-0.03451 0.03451,-0.11649 v -1.147641 q 0,-0.08197 -0.03451,-0.11649 -0.0302,-0.03451 -0.107861,-0.03451 h -0.151006 q -0.07766,0 -0.103546,0.02589 -0.02589,0.02157 -0.02589,0.09923 v 1.199414 q 0,0.07335 0.02589,0.09923 0.02589,0.02589 0.103546,0.02589 z m 0.293382,-1.764606 h 0.3883 v 2.321168 q 0,0.379671 -0.405558,0.379671 h -0.720511 v -0.306325 h 0.608336 q 0.07766,0 0.103547,-0.02589 0.02589,-0.02589 0.02589,-0.09923 v -0.358098 q -0.05609,0.168263 -0.267495,0.168263 h -0.15532 q -0.388299,0 -0.388299,-0.383985 v -1.31159 q 0,-0.383985 0.388299,-0.383985 h 0.15532 q 0.211407,0 0.267495,0.168263 z"
       id="path17400"
       style="font-size:4.31444px;font-family:Teko;-inkscape-font-specification:Teko;text-align:center;text-anchor:middle;fill:#333333;stroke:#ffccaa;stroke-width:0;stroke-linecap:round;stroke-linejoin:round" />
    <path
       d="m 32.234029,58.558394 h 0.46596 v -0.45733 q 0,-0.07335 -0.02589,-0.09923 -0.02157,-0.02589 -0.09923,-0.02589 h -0.211408 q -0.07766,0 -0.103546,0.02589 -0.02589,0.02589 -0.02589,0.09923 z m 0.02157,-0.888774 h 0.422815 q 0.405558,0 0.405558,0.383985 v 0.789542 h -0.849945 v 0.500475 q 0,0.07335 0.02589,0.09923 0.02589,0.02589 0.103546,0.02589 h 0.198465 q 0.07766,0 0.103546,-0.02589 0.02589,-0.02589 0.02589,-0.103547 V 59.16673 h 0.37967 v 0.228666 q 0,0.37967 -0.401242,0.37967 h -0.414187 q -0.401243,0 -0.401243,-0.37967 v -1.341791 q 0,-0.383985 0.401243,-0.383985 z"
       id="path17402"
       style="font-size:4.31444px;font-family:Teko;-inkscape-font-specification:Teko;text-align:center;text-anchor:middle;fill:#333333;stroke:#ffccaa;stroke-width:0;stroke-linecap:round;stroke-linejoin:round" />
    <path
       d="m 25.003014,68.848322 h -0.258866 v -0.310639 h 0.176892 q 0.185521,0 0.224351,-0.142377 l 0.04314,-0.176892 h -0.211407 l -0.440073,-2.070931 h 0.396928 l 0.319269,1.764606 0.297696,-1.764606 h 0.392614 l -0.444387,2.308225 q -0.09492,0.392614 -0.496161,0.392614 z"
       id="path17405"
       style="font-size:4.31444px;font-family:Teko;-inkscape-font-specification:Teko;text-align:center;text-anchor:middle;fill:#333333;stroke:#ffccaa;stroke-width:0;stroke-linecap:round;stroke-linejoin:round" />
    <path
       d="m 26.538959,67.036258 h 0.46596 v -0.457331 q 0,-0.07334 -0.02589,-0.09923 -0.02157,-0.02589 -0.09923,-0.02589 h -0.211408 q -0.07766,0 -0.103546,0.02589 -0.02589,0.02589 -0.02589,0.09923 z m 0.02157,-0.888775 h 0.422815 q 0.405558,0 0.405558,0.383985 v 0.789543 h -0.849945 v 0.500475 q 0,0.07335 0.02589,0.09923 0.02589,0.02589 0.103546,0.02589 h 0.198465 q 0.07766,0 0.103546,-0.02589 0.02589,-0.02589 0.02589,-0.103547 v -0.172577 h 0.37967 v 0.228665 q 0,0.379671 -0.401242,0.379671 h -0.414187 q -0.401243,0 -0.401243,-0.379671 v -1.341791 q 0,-0.383985 0.401243,-0.383985 z"
       id="path17407"
       style="font-size:4.31444px;font-family:Teko;-inkscape-font-specification:Teko;text-align:center;text-anchor:middle;fill:#333333;stroke:#ffccaa;stroke-width:0;stroke-linecap:round;stroke-linejoin:round" />
    <path
       d="m 28.109418,68.25293 h -0.3883 v -2.886361 h 0.3883 z"
       id="path17409"
       style="font-size:4.31444px;font-family:Teko;-inkscape-font-specification:Teko;text-align:center;text-anchor:middle;fill:#333333;stroke:#ffccaa;stroke-width:0;stroke-linecap:round;stroke-linejoin:round" />
    <path
       d="m 28.877386,68.25293 h -0.3883 v -2.886361 h 0.3883 z"
       id="path17411"
       style="font-size:4.31444px;font-family:Teko;-inkscape-font-specification:Teko;text-align:center;text-anchor:middle;fill:#333333;stroke:#ffccaa;stroke-width:0;stroke-linecap:round;stroke-linejoin:round" />
    <path
       d="m 30.111313,67.817171 v -1.23393 q 0,-0.07766 -0.02589,-0.103546 -0.02589,-0.02589 -0.103547,-0.02589 h -0.237294 q -0.07766,0 -0.103546,0.02589 -0.02157,0.02589 -0.02157,0.103546 v 1.23393 q 0,0.07766 0.02157,0.103547 0.02589,0.02589 0.103546,0.02589 h 0.237294 q 0.07766,0 0.103547,-0.02589 0.02589,-0.02589 0.02589,-0.103547 z m -0.478902,-1.669688 h 0.461645 q 0.401243,0 0.401243,0.383985 v 1.341791 q 0,0.379671 -0.401243,0.379671 h -0.461645 q -0.396929,0 -0.396929,-0.379671 v -1.341791 q 0,-0.383985 0.396929,-0.383985 z"
       id="path17413"
       style="font-size:4.31444px;font-family:Teko;-inkscape-font-specification:Teko;text-align:center;text-anchor:middle;fill:#333333;stroke:#ffccaa;stroke-width:0;stroke-linecap:round;stroke-linejoin:round" />
    <path
       d="m 32.618007,66.147483 h 0.366727 l -0.3883,2.105447 h -0.513418 l -0.250237,-1.592029 -0.250238,1.592029 h -0.513418 l -0.383985,-2.105447 h 0.366727 l 0.280439,1.773235 0.271809,-1.773235 h 0.461645 l 0.263181,1.773235 z"
       id="path17415"
       style="font-size:4.31444px;font-family:Teko;-inkscape-font-specification:Teko;text-align:center;text-anchor:middle;fill:#333333;stroke:#ffccaa;stroke-width:0;stroke-linecap:round;stroke-linejoin:round" />
    <g
       id="g17926">
      <path
         d="m 25.054789,75.613345 h 0.151005 q 0.07766,0 0.107861,-0.03452 0.03452,-0.03451 0.03452,-0.11649 v -1.147641 q 0,-0.08197 -0.03452,-0.11649 -0.0302,-0.03451 -0.107861,-0.03451 h -0.151005 q -0.07766,0 -0.103547,0.02589 -0.02589,0.02157 -0.02589,0.09923 v 1.199414 q 0,0.07335 0.02589,0.09923 0.02589,0.02589 0.103547,0.02589 z m 0.293382,-1.764606 h 0.388299 v 2.321168 q 0,0.379671 -0.405557,0.379671 h -0.720512 v -0.306325 h 0.608336 q 0.07766,0 0.103547,-0.02589 0.02589,-0.02589 0.02589,-0.09923 v -0.358098 q -0.05609,0.168263 -0.267496,0.168263 h -0.15532 q -0.388299,0 -0.388299,-0.383985 v -1.31159 q 0,-0.383985 0.388299,-0.383985 h 0.15532 q 0.211408,0 0.267496,0.168263 z"
         id="path17418"
         style="font-size:4.31444px;font-family:Teko;-inkscape-font-specification:Teko;text-align:center;text-anchor:middle;fill:#333333;stroke:#ffccaa;stroke-width:0;stroke-linecap:round;stroke-linejoin:round" />
      <path
         d="m 26.845284,73.844424 h 0.08629 v 0.336527 h -0.15532 q -0.27181,0 -0.27181,0.319268 v 1.453966 h -0.388299 v -2.105446 h 0.388299 v 0.258866 q 0.03452,-0.112175 0.120804,-0.185521 0.0906,-0.07766 0.220037,-0.07766 z"
         id="path17420"
         style="font-size:4.31444px;font-family:Teko;-inkscape-font-specification:Teko;text-align:center;text-anchor:middle;fill:#333333;stroke:#ffccaa;stroke-width:0;stroke-linecap:round;stroke-linejoin:round" />
      <path
         d="m 27.514026,74.737513 h 0.465959 v -0.45733 q 0,-0.07335 -0.02589,-0.09923 -0.02157,-0.02589 -0.09923,-0.02589 h -0.211408 q -0.07766,0 -0.103547,0.02589 -0.02589,0.02589 -0.02589,0.09923 z m 0.02157,-0.888774 h 0.422815 q 0.405557,0 0.405557,0.383985 v 0.789542 h -0.849944 v 0.500476 q 0,0.07335 0.02589,0.09923 0.02589,0.02589 0.103547,0.02589 h 0.198464 q 0.07766,0 0.103547,-0.02589 0.02589,-0.02589 0.02589,-0.103547 v -0.172578 h 0.379671 v 0.228666 q 0,0.37967 -0.401243,0.37967 h -0.414186 q -0.401243,0 -0.401243,-0.37967 v -1.341791 q 0,-0.383985 0.401243,-0.383985 z"
         id="path17422"
         style="font-size:4.31444px;font-family:Teko;-inkscape-font-specification:Teko;text-align:center;text-anchor:middle;fill:#333333;stroke:#ffccaa;stroke-width:0;stroke-linecap:round;stroke-linejoin:round" />
      <path
         d="m 29.067227,74.737513 h 0.465959 v -0.45733 q 0,-0.07335 -0.02589,-0.09923 -0.02157,-0.02589 -0.09923,-0.02589 H 29.19666 q -0.07766,0 -0.103546,0.02589 -0.02589,0.02589 -0.02589,0.09923 z m 0.02157,-0.888774 h 0.422815 q 0.405558,0 0.405558,0.383985 v 0.789542 h -0.849945 v 0.500476 q 0,0.07335 0.02589,0.09923 0.02589,0.02589 0.103546,0.02589 h 0.198464 q 0.07766,0 0.103547,-0.02589 0.02589,-0.02589 0.02589,-0.103547 v -0.172578 h 0.37967 v 0.228666 q 0,0.37967 -0.401243,0.37967 h -0.414186 q -0.401243,0 -0.401243,-0.37967 v -1.341791 q 0,-0.383985 0.401243,-0.383985 z"
         id="path17424"
         style="font-size:4.31444px;font-family:Teko;-inkscape-font-specification:Teko;text-align:center;text-anchor:middle;fill:#333333;stroke:#ffccaa;stroke-width:0;stroke-linecap:round;stroke-linejoin:round" />
      <path
         d="m 30.905181,73.848739 h 0.151005 q 0.392614,0 0.392614,0.383985 v 1.721461 h -0.388299 v -1.665373 q 0,-0.07766 -0.02589,-0.09923 -0.02589,-0.02589 -0.103547,-0.02589 h -0.151005 q -0.07766,0 -0.112175,0.03451 -0.0302,0.03452 -0.0302,0.11649 v 1.639487 h -0.388299 v -2.105446 h 0.388299 v 0.168263 q 0.05609,-0.168263 0.267496,-0.168263 z"
         id="path17426"
         style="font-size:4.31444px;font-family:Teko;-inkscape-font-specification:Teko;text-align:center;text-anchor:middle;fill:#333333;stroke:#ffccaa;stroke-width:0;stroke-linecap:round;stroke-linejoin:round" />
    </g>
    <path
       d="m 25.4172,82.939251 h -0.289067 v 1.333162 q 0,0.07766 0.02157,0.103547 0.02589,0.02157 0.103547,0.02157 h 0.16395 v 0.332212 h -0.276124 q -0.405557,0 -0.405557,-0.379671 v -1.410822 h -0.198464 v -0.314954 h 0.198464 v -0.358098 h 0.392614 v 0.358098 H 25.4172 Z"
       id="path17429"
       style="font-size:4.31444px;font-family:Teko;-inkscape-font-specification:Teko;text-align:center;text-anchor:middle;fill:#333333;stroke:#ffccaa;stroke-width:0;stroke-linecap:round;stroke-linejoin:round" />
    <path
       d="m 26.021221,83.513072 h 0.46596 v -0.457331 q 0,-0.07335 -0.02589,-0.09923 -0.02157,-0.02589 -0.09923,-0.02589 h -0.211407 q -0.07766,0 -0.103547,0.02589 -0.02589,0.02589 -0.02589,0.09923 z m 0.02157,-0.888775 h 0.422815 q 0.405557,0 0.405557,0.383985 v 0.789543 H 26.021221 V 84.2983 q 0,0.07335 0.02589,0.09923 0.02589,0.02589 0.103547,0.02589 h 0.198464 q 0.07766,0 0.103546,-0.02589 0.02589,-0.02589 0.02589,-0.103546 v -0.172578 h 0.379671 v 0.228665 q 0,0.379671 -0.401243,0.379671 H 26.0428 q -0.401243,0 -0.401243,-0.379671 V 83.00828 q 0,-0.383985 0.401243,-0.383985 z"
       id="path17431"
       style="font-size:4.31444px;font-family:Teko;-inkscape-font-specification:Teko;text-align:center;text-anchor:middle;fill:#333333;stroke:#ffccaa;stroke-width:0;stroke-linecap:round;stroke-linejoin:round" />
    <path
       d="m 27.695227,84.41479 h 0.151005 q 0.07766,0 0.107861,-0.03452 0.03452,-0.03451 0.03452,-0.11649 v -1.173527 q 0,-0.08197 -0.03452,-0.11649 -0.0302,-0.03452 -0.107861,-0.03452 h -0.151005 q -0.07766,0 -0.103547,0.02589 -0.02589,0.02157 -0.02589,0.09923 v 1.225301 q 0,0.07766 0.02589,0.103547 0.02589,0.02157 0.103547,0.02157 z m 0.293382,-1.790493 h 0.388299 v 2.105447 h -0.388299 v -0.168263 q -0.05609,0.168263 -0.267496,0.168263 h -0.15532 q -0.388299,0 -0.388299,-0.379671 v -1.341791 q 0,-0.383985 0.388299,-0.383985 h 0.15532 q 0.211408,0 0.267496,0.168263 z"
       id="path17433"
       style="font-size:4.31444px;font-family:Teko;-inkscape-font-specification:Teko;text-align:center;text-anchor:middle;fill:#333333;stroke:#ffccaa;stroke-width:0;stroke-linecap:round;stroke-linejoin:round" />
    <path
       d="m 29.144881,84.729744 h -0.388299 v -2.88636 h 0.388299 z"
       id="path17435"
       style="font-size:4.31444px;font-family:Teko;-inkscape-font-specification:Teko;text-align:center;text-anchor:middle;fill:#333333;stroke:#ffccaa;stroke-width:0;stroke-linecap:round;stroke-linejoin:round" />
    <path
       d="m 25.753727,90.690119 h -0.383985 v -0.224351 q 0,-0.07766 -0.02589,-0.09923 -0.02589,-0.02589 -0.103547,-0.02589 h -0.185521 q -0.07766,0 -0.103547,0.02589 -0.02589,0.02157 -0.02589,0.09923 v 1.225301 q 0,0.07766 0.02589,0.103546 0.02589,0.02157 0.103547,0.02157 h 0.185521 q 0.07766,0 0.103547,-0.02157 0.02589,-0.02589 0.02589,-0.103546 v -0.224351 h 0.383985 v 0.284753 q 0,0.379671 -0.405557,0.379671 h -0.409872 q -0.401243,0 -0.401243,-0.379671 V 90.40968 q 0,-0.383985 0.401243,-0.383985 h 0.409872 q 0.405557,0 0.405557,0.383985 z"
       id="path17438"
       style="font-size:4.31444px;font-family:Teko;-inkscape-font-specification:Teko;text-align:center;text-anchor:middle;fill:#333333;stroke:#ffccaa;stroke-width:0;stroke-linecap:round;stroke-linejoin:round" />
    <path
       d="m 26.387949,92.726534 h -0.258866 v -0.310639 h 0.176892 q 0.185521,0 0.224351,-0.142377 l 0.04314,-0.176892 H 26.362063 L 25.92199,90.025695 h 0.396928 l 0.319269,1.764606 0.297696,-1.764606 h 0.392614 L 26.88411,92.33392 q -0.09492,0.392614 -0.496161,0.392614 z"
       id="path17440"
       style="font-size:4.31444px;font-family:Teko;-inkscape-font-specification:Teko;text-align:center;text-anchor:middle;fill:#333333;stroke:#ffccaa;stroke-width:0;stroke-linecap:round;stroke-linejoin:round" />
    <path
       d="m 28.044698,91.816188 h 0.151006 q 0.07766,0 0.107861,-0.03452 0.03452,-0.03451 0.03452,-0.11649 v -1.173527 q 0,-0.08197 -0.03452,-0.11649 -0.0302,-0.03452 -0.107861,-0.03452 h -0.151006 q -0.07766,0 -0.103546,0.02589 -0.02589,0.02157 -0.02589,0.09923 v 1.225301 q 0,0.07766 0.02589,0.103546 0.02589,0.02157 0.103546,0.02157 z m 0.293382,-1.790493 h 0.3883 v 2.105447 h -0.3883 v -0.168263 q -0.05609,0.168263 -0.267495,0.168263 h -0.15532 q -0.3883,0 -0.3883,-0.379671 V 90.40968 q 0,-0.383985 0.3883,-0.383985 h 0.15532 q 0.211407,0 0.267495,0.168263 z"
       id="path17442"
       style="font-size:4.31444px;font-family:Teko;-inkscape-font-specification:Teko;text-align:center;text-anchor:middle;fill:#333333;stroke:#ffccaa;stroke-width:0;stroke-linecap:round;stroke-linejoin:round" />
    <path
       d="m 29.761848,90.025695 h 0.151005 q 0.392614,0 0.392614,0.383985 v 1.721462 h -0.3883 v -1.665374 q 0,-0.07766 -0.02589,-0.09923 -0.02589,-0.02589 -0.103547,-0.02589 h -0.151005 q -0.07766,0 -0.112176,0.03452 -0.0302,0.03451 -0.0302,0.11649 v 1.639487 H 29.10605 v -2.105447 h 0.388299 v 0.168263 q 0.05609,-0.168263 0.267496,-0.168263 z"
       id="path17444"
       style="font-size:4.31444px;font-family:Teko;-inkscape-font-specification:Teko;text-align:center;text-anchor:middle;fill:#333333;stroke:#ffccaa;stroke-width:0;stroke-linecap:round;stroke-linejoin:round" />
    <rect
       style="fill:#00d1a5;fill-opacity:1;stroke:#ffccaa;stroke-width:0;stroke-linecap:round;stroke-linejoin:round"
       id="rect8959"
       width="8.0895596"
       height="8.0895596"
       x="14.447083"
       y="79.241783" />
    <rect
       style="fill:#00bcc7;fill-opacity:1;stroke:#ffccaa;stroke-width:0;stroke-linecap:round;stroke-linejoin:round"
       id="rect8961"
       width="8.0895596"
       height="8.0895596"
       x="14.447083"
       y="87.331337" />
    <rect
       style="fill:#ffffff;fill-opacity:1;stroke:#ffccaa;stroke-width:0;stroke-linecap:round;stroke-linejoin:round"
       id="rect16894"
       width="8.0895596"
       height="8.0895596"
       x="42.182735"
       y="14.525308" />
    <rect
       style="fill:#e6e6e6;fill-opacity:1;stroke:#ffccaa;stroke-width:0;stroke-linecap:round;stroke-linejoin:round"
       id="rect16896"
       width="8.0895596"
       height="8.0895596"
       x="42.182735"
       y="22.614866" />
    <rect
       style="fill:#cccccc;fill-opacity:1;stroke:#ffccaa;stroke-width:0;stroke-linecap:round;stroke-linejoin:round"
       id="rect16898"
       width="8.0895596"
       height="8.0895596"
       x="42.182735"
       y="30.704426" />
    <rect
       style="fill:#b3b3b3;fill-opacity:1;stroke:#ffccaa;stroke-width:0;stroke-linecap:round;stroke-linejoin:round"
       id="rect16900"
       width="8.0895596"
       height="8.0895596"
       x="42.182735"
       y="38.793987" />
    <rect
       style="fill:#999999;fill-opacity:1;stroke:#ffccaa;stroke-width:0;stroke-linecap:round;stroke-linejoin:round"
       id="rect16902"
       width="8.0895596"
       height="8.0895596"
       x="42.182735"
       y="46.883545" />
    <rect
       style="fill:#808080;fill-opacity:1;stroke:#ffccaa;stroke-width:0;stroke-linecap:round;stroke-linejoin:round"
       id="rect16904"
       width="8.0895596"
       height="8.0895596"
       x="42.182735"
       y="54.973106" />
    <rect
       style="fill:#666666;fill-opacity:1;stroke:#ffccaa;stroke-width:0;stroke-linecap:round;stroke-linejoin:round"
       id="rect16906"
       width="8.0895596"
       height="8.0895596"
       x="42.182735"
       y="63.062668" />
    <rect
       style="fill:#4d4d4d;fill-opacity:1;stroke:#ffccaa;stroke-width:0;stroke-linecap:round;stroke-linejoin:round"
       id="rect16908"
       width="8.0895596"
       height="8.0895596"
       x="42.182735"
       y="71.152222" />
    <path
       d="m 53.82591,17.907821 h 0.366727 l -0.388299,2.105447 h -0.513419 l -0.250237,-1.592029 -0.250238,1.592029 h -0.513418 l -0.383985,-2.105447 h 0.366727 l 0.280439,1.773235 0.27181,-1.773235 h 0.461645 l 0.263181,1.773235 z"
       id="path17458"
       style="font-size:4.31444px;font-family:Teko;-inkscape-font-specification:Teko;text-align:center;text-anchor:middle;fill:#333333;stroke:#ffccaa;stroke-width:0;stroke-linecap:round;stroke-linejoin:round" />
    <path
       d="m 55.059837,17.907821 h 0.151005 q 0.392614,0 0.392614,0.383985 v 1.721462 h -0.3883 v -1.665374 q 0,-0.07766 -0.02589,-0.09923 -0.02589,-0.02589 -0.103547,-0.02589 h -0.151005 q -0.07766,0 -0.112176,0.03452 -0.0302,0.03452 -0.0302,0.116489 v 1.639488 H 54.404039 V 17.12691 h 0.388299 v 0.949177 q 0.05609,-0.168263 0.267496,-0.168263 z"
       id="path17460"
       style="font-size:4.31444px;font-family:Teko;-inkscape-font-specification:Teko;text-align:center;text-anchor:middle;fill:#333333;stroke:#ffccaa;stroke-width:0;stroke-linecap:round;stroke-linejoin:round" />
    <path
       d="m 56.367111,20.013268 h -0.3883 v -2.105447 h 0.3883 z m -0.396929,-2.50669 v -0.383985 h 0.405558 v 0.383985 z"
       id="path17462"
       style="font-size:4.31444px;font-family:Teko;-inkscape-font-specification:Teko;text-align:center;text-anchor:middle;fill:#333333;stroke:#ffccaa;stroke-width:0;stroke-linecap:round;stroke-linejoin:round" />
    <path
       d="m 57.458662,18.222775 h -0.289067 v 1.333162 q 0,0.07766 0.02157,0.103546 0.02589,0.02157 0.103546,0.02157 h 0.163949 v 0.332212 h -0.276124 q -0.405557,0 -0.405557,-0.379671 v -1.410822 h -0.198465 v -0.314954 h 0.198465 v -0.358099 h 0.392614 v 0.358099 h 0.289067 z"
       id="path17464"
       style="font-size:4.31444px;font-family:Teko;-inkscape-font-specification:Teko;text-align:center;text-anchor:middle;fill:#333333;stroke:#ffccaa;stroke-width:0;stroke-linecap:round;stroke-linejoin:round" />
    <path
       d="m 58.062683,18.796596 h 0.465959 v -0.457331 q 0,-0.07335 -0.02589,-0.09923 -0.02157,-0.02589 -0.09923,-0.02589 h -0.211407 q -0.07766,0 -0.103547,0.02589 -0.02589,0.02589 -0.02589,0.09923 z m 0.02157,-0.888775 h 0.422815 q 0.405557,0 0.405557,0.383985 v 0.789543 h -0.849944 v 0.500475 q 0,0.07334 0.02589,0.09923 0.02589,0.02589 0.103547,0.02589 h 0.198464 q 0.07766,0 0.103547,-0.02589 0.02589,-0.02589 0.02589,-0.103547 V 19.40493 h 0.379671 v 0.228665 q 0,0.379671 -0.401243,0.379671 h -0.414186 q -0.401243,0 -0.401243,-0.379671 v -1.341791 q 0,-0.383985 0.401243,-0.383985 z"
       id="path17466"
       style="font-size:4.31444px;font-family:Teko;-inkscape-font-specification:Teko;text-align:center;text-anchor:middle;fill:#333333;stroke:#ffccaa;stroke-width:0;stroke-linecap:round;stroke-linejoin:round" />
    <path
       d="m 52.596296,25.106448 v 2.700839 h -0.392614 v -2.385885 h -0.31064 v -0.314954 z"
       id="path17469"
       style="font-size:4.31444px;font-family:Teko;-inkscape-font-specification:Teko;text-align:center;text-anchor:middle;fill:#333333;stroke:#ffccaa;stroke-width:0;stroke-linecap:round;stroke-linejoin:round" />
    <path
       d="m 54.300502,25.486119 v 1.941498 q 0,0.37967 -0.401243,0.37967 h -0.470274 q -0.405557,0 -0.405557,-0.37967 v -1.941498 q 0,-0.379671 0.405557,-0.379671 h 0.470274 q 0.401243,0 0.401243,0.379671 z m -0.392614,1.881095 v -1.820693 q 0,-0.07766 -0.02589,-0.09923 -0.02589,-0.02589 -0.103547,-0.02589 h -0.23298 q -0.07766,0 -0.103546,0.02589 -0.02157,0.02157 -0.02157,0.09923 v 1.820693 q 0,0.07766 0.02157,0.103547 0.02589,0.02157 0.103546,0.02157 h 0.23298 q 0.07766,0 0.103547,-0.02157 0.02589,-0.02589 0.02589,-0.103547 z"
       id="path17471"
       style="font-size:4.31444px;font-family:Teko;-inkscape-font-specification:Teko;text-align:center;text-anchor:middle;fill:#333333;stroke:#ffccaa;stroke-width:0;stroke-linecap:round;stroke-linejoin:round" />
    <path
       d="m 55.983131,25.486119 v 1.941498 q 0,0.37967 -0.401243,0.37967 h -0.470274 q -0.405557,0 -0.405557,-0.37967 v -1.941498 q 0,-0.379671 0.405557,-0.379671 h 0.470274 q 0.401243,0 0.401243,0.379671 z m -0.392614,1.881095 v -1.820693 q 0,-0.07766 -0.02589,-0.09923 -0.02589,-0.02589 -0.103546,-0.02589 h -0.23298 q -0.07766,0 -0.103546,0.02589 -0.02157,0.02157 -0.02157,0.09923 v 1.820693 q 0,0.07766 0.02157,0.103547 0.02589,0.02157 0.103546,0.02157 h 0.23298 q 0.07766,0 0.103546,-0.02157 0.02589,-0.02589 0.02589,-0.103547 z"
       id="path17473"
       style="font-size:4.31444px;font-family:Teko;-inkscape-font-specification:Teko;text-align:center;text-anchor:middle;fill:#333333;stroke:#ffccaa;stroke-width:0;stroke-linecap:round;stroke-linejoin:round" />
    <path
       d="m 52.281342,33.633925 v 0.440073 h -0.388299 v -0.500475 q 0,-0.379671 0.401243,-0.379671 h 0.371042 q 0.405557,0 0.405557,0.379671 v 0.27181 q 0,0.30201 -0.151006,0.591078 l -0.582449,1.143326 h 0.750713 v 0.314954 h -1.190786 v -0.30201 l 0.66011,-1.242559 q 0.120804,-0.228665 0.120804,-0.517733 v -0.198464 q 0,-0.07766 -0.02589,-0.09923 -0.02157,-0.02589 -0.103546,-0.02589 h -0.138062 q -0.07766,0 -0.103547,0.02589 -0.02589,0.02157 -0.02589,0.09923 z"
       id="path17476"
       style="font-size:4.31444px;font-family:Teko;-inkscape-font-specification:Teko;text-align:center;text-anchor:middle;fill:#333333;stroke:#ffccaa;stroke-width:0;stroke-linecap:round;stroke-linejoin:round" />
    <path
       d="m 54.680167,33.573523 v 1.941498 q 0,0.37967 -0.401243,0.37967 H 53.80865 q -0.405557,0 -0.405557,-0.37967 v -1.941498 q 0,-0.379671 0.405557,-0.379671 h 0.470274 q 0.401243,0 0.401243,0.379671 z m -0.392614,1.881096 v -1.820694 q 0,-0.07766 -0.02589,-0.09923 -0.02589,-0.02589 -0.103546,-0.02589 h -0.23298 q -0.07766,0 -0.103546,0.02589 -0.02157,0.02157 -0.02157,0.09923 v 1.820694 q 0,0.07766 0.02157,0.103546 0.02589,0.02157 0.103546,0.02157 h 0.23298 q 0.07766,0 0.103546,-0.02157 0.02589,-0.02589 0.02589,-0.103546 z"
       id="path17478"
       style="font-size:4.31444px;font-family:Teko;-inkscape-font-specification:Teko;text-align:center;text-anchor:middle;fill:#333333;stroke:#ffccaa;stroke-width:0;stroke-linecap:round;stroke-linejoin:round" />
    <path
       d="m 56.362796,33.573523 v 1.941498 q 0,0.37967 -0.401243,0.37967 h -0.470274 q -0.405557,0 -0.405557,-0.37967 v -1.941498 q 0,-0.379671 0.405557,-0.379671 h 0.470274 q 0.401243,0 0.401243,0.379671 z m -0.392614,1.881096 v -1.820694 q 0,-0.07766 -0.02589,-0.09923 -0.02589,-0.02589 -0.103546,-0.02589 h -0.23298 q -0.07766,0 -0.103547,0.02589 -0.02157,0.02157 -0.02157,0.09923 v 1.820694 q 0,0.07766 0.02157,0.103546 0.02589,0.02157 0.103547,0.02157 h 0.23298 q 0.07766,0 0.103546,-0.02157 0.02589,-0.02589 0.02589,-0.103546 z"
       id="path17480"
       style="font-size:4.31444px;font-family:Teko;-inkscape-font-specification:Teko;text-align:center;text-anchor:middle;fill:#333333;stroke:#ffccaa;stroke-width:0;stroke-linecap:round;stroke-linejoin:round" />
    <path
       d="m 52.281339,41.725638 v 0.405557 H 51.89304 v -0.465959 q 0,-0.379671 0.401243,-0.379671 h 0.396928 q 0.405557,0 0.405557,0.379671 v 0.681681 q 0,0.228666 -0.172577,0.267496 0.172577,0.03883 0.172577,0.250237 v 0.742084 q 0,0.37967 -0.405557,0.37967 h -0.396928 q -0.401243,0 -0.401243,-0.37967 v -0.461645 h 0.388299 v 0.401243 q 0,0.07766 0.02589,0.103546 0.02589,0.02157 0.103547,0.02157 h 0.168263 q 0.07766,0 0.103546,-0.02157 0.02589,-0.02589 0.02589,-0.103546 v -0.647166 q 0,-0.07766 -0.02589,-0.09923 -0.02589,-0.02589 -0.103546,-0.02589 h -0.323583 v -0.31064 h 0.323583 q 0.07766,0 0.103546,-0.02157 0.02589,-0.02589 0.02589,-0.103547 v -0.61265 q 0,-0.07766 -0.02589,-0.09923 -0.02589,-0.02589 -0.103546,-0.02589 h -0.168263 q -0.07766,0 -0.103547,0.02589 -0.02589,0.02157 -0.02589,0.09923 z"
       id="path17483"
       style="font-size:4.31444px;font-family:Teko;-inkscape-font-specification:Teko;text-align:center;text-anchor:middle;fill:#333333;stroke:#ffccaa;stroke-width:0;stroke-linecap:round;stroke-linejoin:round" />
    <path
       d="m 54.779398,41.665236 v 1.941498 q 0,0.37967 -0.401243,0.37967 h -0.470274 q -0.405557,0 -0.405557,-0.37967 v -1.941498 q 0,-0.379671 0.405557,-0.379671 h 0.470274 q 0.401243,0 0.401243,0.379671 z m -0.392614,1.881096 v -1.820694 q 0,-0.07766 -0.02589,-0.09923 -0.02589,-0.02589 -0.103546,-0.02589 h -0.23298 q -0.07766,0 -0.103546,0.02589 -0.02157,0.02157 -0.02157,0.09923 v 1.820694 q 0,0.07766 0.02157,0.103546 0.02589,0.02157 0.103546,0.02157 h 0.23298 q 0.07766,0 0.103546,-0.02157 0.02589,-0.02589 0.02589,-0.103546 z"
       id="path17485"
       style="font-size:4.31444px;font-family:Teko;-inkscape-font-specification:Teko;text-align:center;text-anchor:middle;fill:#333333;stroke:#ffccaa;stroke-width:0;stroke-linecap:round;stroke-linejoin:round" />
    <path
       d="m 56.462027,41.665236 v 1.941498 q 0,0.37967 -0.401243,0.37967 H 55.59051 q -0.405557,0 -0.405557,-0.37967 v -1.941498 q 0,-0.379671 0.405557,-0.379671 h 0.470274 q 0.401243,0 0.401243,0.379671 z m -0.392614,1.881096 v -1.820694 q 0,-0.07766 -0.02589,-0.09923 -0.02589,-0.02589 -0.103546,-0.02589 H 55.707 q -0.07766,0 -0.103547,0.02589 -0.02157,0.02157 -0.02157,0.09923 v 1.820694 q 0,0.07766 0.02157,0.103546 0.02589,0.02157 0.103547,0.02157 h 0.23298 q 0.07766,0 0.103546,-0.02157 0.02589,-0.02589 0.02589,-0.103546 z"
       id="path17487"
       style="font-size:4.31444px;font-family:Teko;-inkscape-font-specification:Teko;text-align:center;text-anchor:middle;fill:#333333;stroke:#ffccaa;stroke-width:0;stroke-linecap:round;stroke-linejoin:round" />
    <path
       d="m 53.433295,51.51725 v 0.319269 H 53.191687 V 52.37151 H 52.81633 v -0.534991 h -0.92329 v -0.323583 l 0.776599,-1.842266 h 0.3883 l -0.793857,1.84658 h 0.552248 v -0.517732 h 0.375357 v 0.517732 z"
       id="path17490"
       style="font-size:4.31444px;font-family:Teko;-inkscape-font-specification:Teko;text-align:center;text-anchor:middle;fill:#333333;stroke:#ffccaa;stroke-width:0;stroke-linecap:round;stroke-linejoin:round" />
    <path
       d="m 54.913152,50.050341 v 1.941498 q 0,0.379671 -0.401243,0.379671 h -0.470274 q -0.405557,0 -0.405557,-0.379671 v -1.941498 q 0,-0.379671 0.405557,-0.379671 h 0.470274 q 0.401243,0 0.401243,0.379671 z m -0.392614,1.881096 v -1.820694 q 0,-0.07766 -0.02589,-0.09923 -0.02589,-0.02589 -0.103546,-0.02589 h -0.23298 q -0.07766,0 -0.103547,0.02589 -0.02157,0.02157 -0.02157,0.09923 v 1.820694 q 0,0.07766 0.02157,0.103546 0.02589,0.02157 0.103547,0.02157 h 0.23298 q 0.07766,0 0.103546,-0.02157 0.02589,-0.02589 0.02589,-0.103546 z"
       id="path17492"
       style="font-size:4.31444px;font-family:Teko;-inkscape-font-specification:Teko;text-align:center;text-anchor:middle;fill:#333333;stroke:#ffccaa;stroke-width:0;stroke-linecap:round;stroke-linejoin:round" />
    <path
       d="m 56.595781,50.050341 v 1.941498 q 0,0.379671 -0.401243,0.379671 h -0.470274 q -0.405557,0 -0.405557,-0.379671 v -1.941498 q 0,-0.379671 0.405557,-0.379671 h 0.470274 q 0.401243,0 0.401243,0.379671 z m -0.392614,1.881096 v -1.820694 q 0,-0.07766 -0.02589,-0.09923 -0.02589,-0.02589 -0.103546,-0.02589 h -0.23298 q -0.07766,0 -0.103547,0.02589 -0.02157,0.02157 -0.02157,0.09923 v 1.820694 q 0,0.07766 0.02157,0.103546 0.02589,0.02157 0.103547,0.02157 h 0.23298 q 0.07766,0 0.103546,-0.02157 0.02589,-0.02589 0.02589,-0.103546 z"
       id="path17494"
       style="font-size:4.31444px;font-family:Teko;-inkscape-font-specification:Teko;text-align:center;text-anchor:middle;fill:#333333;stroke:#ffccaa;stroke-width:0;stroke-linecap:round;stroke-linejoin:round" />
    <path
       d="m 52.28997,58.08812 h 0.4185 q 0.405558,0 0.405558,0.379671 v 0.927605 q 0,0.37967 -0.405558,0.37967 h -0.414186 q -0.401243,0 -0.401243,-0.37967 v -0.478903 h 0.392614 v 0.418501 q 0,0.07766 0.02589,0.103546 0.02589,0.02157 0.103547,0.02157 h 0.176892 q 0.07766,0 0.103546,-0.02157 0.02589,-0.02589 0.02589,-0.103546 v -0.806801 q 0,-0.07766 -0.02589,-0.103546 -0.02589,-0.02589 -0.103546,-0.02589 H 51.90167 v -1.324533 h 1.203729 v 0.314954 H 52.28997 Z"
       id="path17497"
       style="font-size:4.31444px;font-family:Teko;-inkscape-font-specification:Teko;text-align:center;text-anchor:middle;fill:#333333;stroke:#ffccaa;stroke-width:0;stroke-linecap:round;stroke-linejoin:round" />
    <path
       d="m 54.744885,57.453898 v 1.941498 q 0,0.37967 -0.401243,0.37967 h -0.470274 q -0.405557,0 -0.405557,-0.37967 v -1.941498 q 0,-0.379671 0.405557,-0.379671 h 0.470274 q 0.401243,0 0.401243,0.379671 z m -0.392614,1.881096 V 57.5143 q 0,-0.07766 -0.02589,-0.09923 -0.02589,-0.02589 -0.103546,-0.02589 h -0.23298 q -0.07766,0 -0.103546,0.02589 -0.02157,0.02157 -0.02157,0.09923 v 1.820694 q 0,0.07766 0.02157,0.103546 0.02589,0.02157 0.103546,0.02157 h 0.23298 q 0.07766,0 0.103546,-0.02157 0.02589,-0.02589 0.02589,-0.103546 z"
       id="path17499"
       style="font-size:4.31444px;font-family:Teko;-inkscape-font-specification:Teko;text-align:center;text-anchor:middle;fill:#333333;stroke:#ffccaa;stroke-width:0;stroke-linecap:round;stroke-linejoin:round" />
    <path
       d="m 56.427514,57.453898 v 1.941498 q 0,0.37967 -0.401243,0.37967 h -0.470274 q -0.405557,0 -0.405557,-0.37967 v -1.941498 q 0,-0.379671 0.405557,-0.379671 h 0.470274 q 0.401243,0 0.401243,0.379671 z M 56.0349,59.334994 V 57.5143 q 0,-0.07766 -0.02589,-0.09923 -0.02589,-0.02589 -0.103546,-0.02589 h -0.23298 q -0.07766,0 -0.103547,0.02589 -0.02157,0.02157 -0.02157,0.09923 v 1.820694 q 0,0.07766 0.02157,0.103546 0.02589,0.02157 0.103547,0.02157 h 0.23298 q 0.07766,0 0.103546,-0.02157 0.02589,-0.02589 0.02589,-0.103546 z"
       id="path17501"
       style="font-size:4.31444px;font-family:Teko;-inkscape-font-specification:Teko;text-align:center;text-anchor:middle;fill:#333333;stroke:#ffccaa;stroke-width:0;stroke-linecap:round;stroke-linejoin:round" />
    <path
       d="M 52.768872,67.812857 V 67.13549 q 0,-0.07335 -0.02589,-0.09923 -0.02589,-0.02589 -0.103547,-0.02589 H 52.28134 v 0.802486 q 0,0.07766 0.02589,0.103546 0.02589,0.02157 0.103547,0.02157 h 0.228665 q 0.07766,0 0.103547,-0.02157 0.02589,-0.02589 0.02589,-0.103546 z M 52.28134,66.699731 h 0.474589 q 0.401243,0 0.401243,0.383986 v 0.789542 q 0,0.379671 -0.401243,0.379671 h -0.457331 q -0.405557,0 -0.405557,-0.379671 v -1.941498 q 0,-0.379671 0.405557,-0.379671 h 0.444388 q 0.401242,0 0.401242,0.379671 v 0.46596 h -0.383985 v -0.405558 q 0,-0.07766 -0.02589,-0.09923 -0.02589,-0.02589 -0.103547,-0.02589 H 52.41077 q -0.07766,0 -0.103547,0.02589 -0.02589,0.02157 -0.02589,0.09923 z"
       id="path17504"
       style="font-size:4.31444px;font-family:Teko;-inkscape-font-specification:Teko;text-align:center;text-anchor:middle;fill:#333333;stroke:#ffccaa;stroke-width:0;stroke-linecap:round;stroke-linejoin:round" />
    <path
       d="m 54.818231,65.931761 v 1.941498 q 0,0.379671 -0.401243,0.379671 h -0.470274 q -0.405557,0 -0.405557,-0.379671 v -1.941498 q 0,-0.379671 0.405557,-0.379671 h 0.470274 q 0.401243,0 0.401243,0.379671 z m -0.392614,1.881096 v -1.820694 q 0,-0.07766 -0.02589,-0.09923 -0.02589,-0.02589 -0.103546,-0.02589 h -0.23298 q -0.07766,0 -0.103547,0.02589 -0.02157,0.02157 -0.02157,0.09923 v 1.820694 q 0,0.07766 0.02157,0.103546 0.02589,0.02157 0.103547,0.02157 h 0.23298 q 0.07766,0 0.103546,-0.02157 0.02589,-0.02589 0.02589,-0.103546 z"
       id="path17506"
       style="font-size:4.31444px;font-family:Teko;-inkscape-font-specification:Teko;text-align:center;text-anchor:middle;fill:#333333;stroke:#ffccaa;stroke-width:0;stroke-linecap:round;stroke-linejoin:round" />
    <path
       d="m 56.50086,65.931761 v 1.941498 q 0,0.379671 -0.401243,0.379671 h -0.470274 q -0.405557,0 -0.405557,-0.379671 v -1.941498 q 0,-0.379671 0.405557,-0.379671 h 0.470274 q 0.401243,0 0.401243,0.379671 z m -0.392614,1.881096 v -1.820694 q 0,-0.07766 -0.02589,-0.09923 -0.02589,-0.02589 -0.103546,-0.02589 h -0.23298 q -0.07766,0 -0.103547,0.02589 -0.02157,0.02157 -0.02157,0.09923 v 1.820694 q 0,0.07766 0.02157,0.103546 0.02589,0.02157 0.103547,0.02157 h 0.23298 q 0.07766,0 0.103546,-0.02157 0.02589,-0.02589 0.02589,-0.103546 z"
       id="path17508"
       style="font-size:4.31444px;font-family:Teko;-inkscape-font-specification:Teko;text-align:center;text-anchor:middle;fill:#333333;stroke:#ffccaa;stroke-width:0;stroke-linecap:round;stroke-linejoin:round" />
    <path
       d="m 53.101085,73.253346 v 0.241609 l -0.724826,2.45923 h -0.396928 l 0.703253,-2.377256 h -0.789542 v -0.323583 z"
       id="path17511"
       style="font-size:4.31444px;font-family:Teko;-inkscape-font-specification:Teko;text-align:center;text-anchor:middle;fill:#333333;stroke:#ffccaa;stroke-width:0;stroke-linecap:round;stroke-linejoin:round" />
    <path
       d="m 54.602512,73.633017 v 1.941498 q 0,0.37967 -0.401243,0.37967 h -0.470274 q -0.405557,0 -0.405557,-0.37967 v -1.941498 q 0,-0.379671 0.405557,-0.379671 h 0.470274 q 0.401243,0 0.401243,0.379671 z m -0.392614,1.881096 v -1.820694 q 0,-0.07766 -0.02589,-0.09923 -0.02589,-0.02589 -0.103546,-0.02589 h -0.23298 q -0.07766,0 -0.103547,0.02589 -0.02157,0.02157 -0.02157,0.09923 v 1.820694 q 0,0.07766 0.02157,0.103546 0.02589,0.02157 0.103547,0.02157 h 0.23298 q 0.07766,0 0.103546,-0.02157 0.02589,-0.02589 0.02589,-0.103546 z"
       id="path17513"
       style="font-size:4.31444px;font-family:Teko;-inkscape-font-specification:Teko;text-align:center;text-anchor:middle;fill:#333333;stroke:#ffccaa;stroke-width:0;stroke-linecap:round;stroke-linejoin:round" />
    <path
       d="m 56.28514,73.633017 v 1.941498 q 0,0.37967 -0.401242,0.37967 h -0.470274 q -0.405558,0 -0.405558,-0.37967 v -1.941498 q 0,-0.379671 0.405558,-0.379671 h 0.470274 q 0.401242,0 0.401242,0.379671 z m -0.392614,1.881096 v -1.820694 q 0,-0.07766 -0.02589,-0.09923 -0.02589,-0.02589 -0.103547,-0.02589 H 55.53011 q -0.07766,0 -0.103547,0.02589 -0.02157,0.02157 -0.02157,0.09923 v 1.820694 q 0,0.07766 0.02157,0.103546 0.02589,0.02157 0.103547,0.02157 h 0.232979 q 0.07766,0 0.103547,-0.02157 0.02589,-0.02589 0.02589,-0.103546 z"
       id="path17515"
       style="font-size:4.31444px;font-family:Teko;-inkscape-font-specification:Teko;text-align:center;text-anchor:middle;fill:#333333;stroke:#ffccaa;stroke-width:0;stroke-linecap:round;stroke-linejoin:round" />
    <path
       d="m 52.781817,83.094571 v -0.629908 q 0,-0.07335 -0.02589,-0.09923 -0.02157,-0.02589 -0.09923,-0.02589 h -0.254552 q -0.07766,0 -0.103547,0.02589 -0.02157,0.02589 -0.02157,0.09923 v 0.629908 q 0,0.07335 0.02157,0.09923 0.02589,0.02589 0.103547,0.02589 h 0.254552 q 0.07766,0 0.09923,-0.02589 0.02589,-0.02589 0.02589,-0.09923 z m 0,1.1951 v -0.647166 q 0,-0.07335 -0.02589,-0.09923 -0.02157,-0.02589 -0.09923,-0.02589 h -0.254552 q -0.07766,0 -0.103547,0.02589 -0.02157,0.02589 -0.02157,0.09923 v 0.647166 q 0,0.07766 0.02157,0.103547 0.02589,0.02589 0.103547,0.02589 h 0.254552 q 0.07766,0 0.09923,-0.02589 0.02589,-0.02589 0.02589,-0.103547 z m 0.383986,-1.881096 V 83.1032 q 0,0.228665 -0.168264,0.267495 0.168264,0.04746 0.168264,0.254552 v 0.724826 q 0,0.379671 -0.401243,0.379671 h -0.470274 q -0.401243,0 -0.401243,-0.379671 v -0.724826 q 0,-0.207093 0.168263,-0.254552 -0.168263,-0.03883 -0.168263,-0.267495 v -0.694625 q 0,-0.37967 0.401243,-0.37967 h 0.470274 q 0.401243,0 0.401243,0.37967 z"
       id="path17518"
       style="font-size:4.31444px;font-family:Teko;-inkscape-font-specification:Teko;text-align:center;text-anchor:middle;fill:#333333;stroke:#ffccaa;stroke-width:0;stroke-linecap:round;stroke-linejoin:round" />
    <path
       d="m 54.848434,82.408575 v 1.941498 q 0,0.379671 -0.401243,0.379671 h -0.470274 q -0.405557,0 -0.405557,-0.379671 v -1.941498 q 0,-0.37967 0.405557,-0.37967 h 0.470274 q 0.401243,0 0.401243,0.37967 z m -0.392614,1.881096 v -1.820693 q 0,-0.07766 -0.02589,-0.09923 -0.02589,-0.02589 -0.103546,-0.02589 h -0.23298 q -0.07766,0 -0.103547,0.02589 -0.02157,0.02157 -0.02157,0.09923 v 1.820693 q 0,0.07766 0.02157,0.103547 0.02589,0.02157 0.103547,0.02157 h 0.23298 q 0.07766,0 0.103546,-0.02157 0.02589,-0.02589 0.02589,-0.103547 z"
       id="path17520"
       style="font-size:4.31444px;font-family:Teko;-inkscape-font-specification:Teko;text-align:center;text-anchor:middle;fill:#333333;stroke:#ffccaa;stroke-width:0;stroke-linecap:round;stroke-linejoin:round" />
    <path
       d="m 56.531063,82.408575 v 1.941498 q 0,0.379671 -0.401243,0.379671 h -0.470274 q -0.405558,0 -0.405558,-0.379671 v -1.941498 q 0,-0.37967 0.405558,-0.37967 h 0.470274 q 0.401243,0 0.401243,0.37967 z m -0.392614,1.881096 v -1.820693 q 0,-0.07766 -0.02589,-0.09923 -0.02589,-0.02589 -0.103547,-0.02589 h -0.232979 q -0.07766,0 -0.103547,0.02589 -0.02157,0.02157 -0.02157,0.09923 v 1.820693 q 0,0.07766 0.02157,0.103547 0.02589,0.02157 0.103547,0.02157 h 0.232979 q 0.07766,0 0.103547,-0.02157 0.02589,-0.02589 0.02589,-0.103547 z"
       id="path17522"
       style="font-size:4.31444px;font-family:Teko;-inkscape-font-specification:Teko;text-align:center;text-anchor:middle;fill:#333333;stroke:#ffccaa;stroke-width:0;stroke-linecap:round;stroke-linejoin:round" />
    <path
       d="m 52.410777,90.72032 h 0.353784 v -0.849945 q 0,-0.07766 -0.02589,-0.09923 -0.02157,-0.02589 -0.09923,-0.02589 h -0.228665 q -0.07766,0 -0.103547,0.02589 -0.02589,0.02157 -0.02589,0.09923 v 0.724826 q 0,0.07335 0.02589,0.09923 0.02589,0.02589 0.103547,0.02589 z m -0.11649,-1.290018 h 0.45733 q 0.405558,0 0.405558,0.379671 v 1.941498 q 0,0.379671 -0.405558,0.379671 H 52.30723 q -0.405557,0 -0.405557,-0.379671 v -0.461645 h 0.388299 v 0.401243 q 0,0.07766 0.02157,0.103546 0.02589,0.02157 0.107861,0.02157 h 0.220036 q 0.07766,0 0.09923,-0.02157 0.02589,-0.02589 0.02589,-0.103546 v -0.664424 h -0.470274 q -0.401243,0 -0.401243,-0.383985 v -0.832687 q 0,-0.379671 0.401243,-0.379671 z"
       id="path17525"
       style="font-size:4.31444px;font-family:Teko;-inkscape-font-specification:Teko;text-align:center;text-anchor:middle;fill:#333333;stroke:#ffccaa;stroke-width:0;stroke-linecap:round;stroke-linejoin:round" />
    <path
       d="m 54.839807,89.809973 v 1.941498 q 0,0.379671 -0.401242,0.379671 h -0.470274 q -0.405558,0 -0.405558,-0.379671 v -1.941498 q 0,-0.379671 0.405558,-0.379671 h 0.470274 q 0.401242,0 0.401242,0.379671 z m -0.392614,1.881096 v -1.820694 q 0,-0.07766 -0.02589,-0.09923 -0.02589,-0.02589 -0.103547,-0.02589 h -0.23298 q -0.07766,0 -0.103546,0.02589 -0.02157,0.02157 -0.02157,0.09923 v 1.820694 q 0,0.07766 0.02157,0.103546 0.02589,0.02157 0.103546,0.02157 h 0.23298 q 0.07766,0 0.103547,-0.02157 0.02589,-0.02589 0.02589,-0.103546 z"
       id="path17527"
       style="font-size:4.31444px;font-family:Teko;-inkscape-font-specification:Teko;text-align:center;text-anchor:middle;fill:#333333;stroke:#ffccaa;stroke-width:0;stroke-linecap:round;stroke-linejoin:round" />
    <path
       d="m 56.522436,89.809973 v 1.941498 q 0,0.379671 -0.401243,0.379671 h -0.470274 q -0.405557,0 -0.405557,-0.379671 v -1.941498 q 0,-0.379671 0.405557,-0.379671 h 0.470274 q 0.401243,0 0.401243,0.379671 z m -0.392614,1.881096 v -1.820694 q 0,-0.07766 -0.02589,-0.09923 -0.02589,-0.02589 -0.103547,-0.02589 h -0.23298 q -0.07766,0 -0.103546,0.02589 -0.02157,0.02157 -0.02157,0.09923 v 1.820694 q 0,0.07766 0.02157,0.103546 0.02589,0.02157 0.103546,0.02157 h 0.23298 q 0.07766,0 0.103547,-0.02157 0.02589,-0.02589 0.02589,-0.103546 z"
       id="path17529"
       style="font-size:4.31444px;font-family:Teko;-inkscape-font-specification:Teko;text-align:center;text-anchor:middle;fill:#333333;stroke:#ffccaa;stroke-width:0;stroke-linecap:round;stroke-linejoin:round" />
    <rect
       style="fill:#333333;fill-opacity:1;stroke:#ffccaa;stroke-width:0;stroke-linecap:round;stroke-linejoin:round"
       id="rect16950"
       width="8.0895596"
       height="8.0895596"
       x="42.182735"
       y="79.241783" />
    <rect
       style="fill:#1a1a1a;fill-opacity:1;stroke:#ffccaa;stroke-width:0;stroke-linecap:round;stroke-linejoin:round"
       id="rect16952"
       width="8.0895596"
       height="8.0895596"
       x="42.182735"
       y="87.331337" />
    <rect
       style="fill:#000000;fill-opacity:1;stroke:#ffccaa;stroke-width:0;stroke-linecap:round;stroke-linejoin:round"
       id="rect16954"
       width="8.0895596"
       height="8.0895596"
       x="42.182735"
       y="95.420891" />
    <path
       d="m 52.704158,99.78063 v -1.229615 q 0,-0.07335 -0.02589,-0.09923 -0.02589,-0.02589 -0.103547,-0.02589 H 52.42372 q -0.07766,0 -0.112176,0.03452 -0.0302,0.03451 -0.0302,0.11649 v 1.177842 q 0,0.08197 0.0302,0.11649 0.03452,0.03451 0.112176,0.03451 h 0.151005 q 0.07766,0 0.103547,-0.02157 0.02589,-0.02589 0.02589,-0.103547 z m -0.155319,-1.669688 h 0.151005 q 0.392614,0 0.392614,0.383985 v 1.346105 q 0,0.379668 -0.392614,0.379668 h -0.151005 q -0.211408,0 -0.267496,-0.16826 v 0.16826 h -0.388299 v -2.886357 h 0.388299 v 0.944862 q 0.05609,-0.168263 0.267496,-0.168263 z"
       id="path17532"
       style="font-size:4.31444px;font-family:Teko;-inkscape-font-specification:Teko;text-align:center;text-anchor:middle;fill:#333333;stroke:#ffccaa;stroke-width:0;stroke-linecap:round;stroke-linejoin:round" />
    <path
       d="m 53.834544,100.2207 h -0.388299 v -2.886357 h 0.388299 z"
       id="path17534"
       style="font-size:4.31444px;font-family:Teko;-inkscape-font-specification:Teko;text-align:center;text-anchor:middle;fill:#333333;stroke:#ffccaa;stroke-width:0;stroke-linecap:round;stroke-linejoin:round" />
    <path
       d="m 54.706059,99.905749 h 0.151005 q 0.07766,0 0.107861,-0.03451 0.03452,-0.03452 0.03452,-0.11649 v -1.173528 q 0,-0.08197 -0.03452,-0.11649 -0.0302,-0.03451 -0.107861,-0.03451 h -0.151005 q -0.07766,0 -0.103546,0.02589 -0.02589,0.02157 -0.02589,0.09923 v 1.225301 q 0,0.07766 0.02589,0.103547 0.02589,0.02157 0.103546,0.02157 z m 0.293382,-1.790492 h 0.3883 v 2.105443 h -0.3883 v -0.16826 q -0.05609,0.16826 -0.267495,0.16826 h -0.15532 q -0.3883,0 -0.3883,-0.379668 v -1.34179 q 0,-0.383985 0.3883,-0.383985 h 0.15532 q 0.211407,0 0.267495,0.168263 z"
       id="path17536"
       style="font-size:4.31444px;font-family:Teko;-inkscape-font-specification:Teko;text-align:center;text-anchor:middle;fill:#333333;stroke:#ffccaa;stroke-width:0;stroke-linecap:round;stroke-linejoin:round" />
    <path
       d="m 56.958199,98.77968 h -0.383985 v -0.224351 q 0,-0.07766 -0.02589,-0.09923 -0.02589,-0.02589 -0.103547,-0.02589 H 56.25926 q -0.07766,0 -0.103547,0.02589 -0.02589,0.02157 -0.02589,0.09923 v 1.225301 q 0,0.07766 0.02589,0.103547 0.02589,0.02157 0.103547,0.02157 h 0.185521 q 0.07766,0 0.103547,-0.02157 0.02589,-0.02589 0.02589,-0.103547 v -0.224351 h 0.383985 v 0.284753 q 0,0.379668 -0.405557,0.379668 H 56.14277 q -0.401243,0 -0.401243,-0.379668 v -1.34179 q 0,-0.383985 0.401243,-0.383985 h 0.409872 q 0.405557,0 0.405557,0.383985 z"
       id="path17538"
       style="font-size:4.31444px;font-family:Teko;-inkscape-font-specification:Teko;text-align:center;text-anchor:middle;fill:#333333;stroke:#ffccaa;stroke-width:0;stroke-linecap:round;stroke-linejoin:round" />
    <path
       d="m 57.281781,100.2207 v -2.886357 h 0.3883 v 2.886357 z m 1.337477,-2.105443 -0.483217,1.005264 0.483217,1.100179 h -0.414186 l -0.46596,-1.100179 0.46596,-1.005264 z"
       id="path17540"
       style="font-size:4.31444px;font-family:Teko;-inkscape-font-specification:Teko;text-align:center;text-anchor:middle;fill:#333333;stroke:#ffccaa;stroke-width:0;stroke-linecap:round;stroke-linejoin:round" />
    <rect
       style="fill:#faf8ed;fill-opacity:1;stroke:#ffccaa;stroke-width:0;stroke-linecap:round;stroke-linejoin:round"
       id="rect451"
       width="8.0895596"
       height="8.0895596"
       x="14.447083"
       y="94.732742" />
    <path
       d="m 25.34817,99.092482 v -1.225301 q 0,-0.07766 -0.02589,-0.09923 -0.02589,-0.02589 -0.103546,-0.02589 h -0.151006 q -0.07766,0 -0.112175,0.03452 -0.0302,0.03451 -0.0302,0.11649 v 1.173527 q 0,0.08197 0.0302,0.11649 0.03452,0.03452 0.112175,0.03452 h 0.151006 q 0.07766,0 0.103546,-0.02157 0.02589,-0.02589 0.02589,-0.103546 z m -0.15532,-1.665374 h 0.151006 q 0.392614,0 0.392614,0.383985 v 1.341791 q 0,0.379671 -0.392614,0.379671 H 25.19285 q -0.211407,0 -0.267495,-0.168264 v 0.763659 h -0.3883 v -2.700842 h 0.3883 v 0.168263 q 0.05609,-0.168263 0.267495,-0.168263 z"
       id="path17447"
       style="font-size:4.31444px;font-family:Teko;-inkscape-font-specification:Teko;text-align:center;text-anchor:middle;fill:#333333;stroke:#ffccaa;stroke-width:0;stroke-linecap:round;stroke-linejoin:round" />
    <path
       d="m 26.582102,99.217601 h 0.151006 q 0.07766,0 0.107861,-0.03452 0.03451,-0.03452 0.03451,-0.11649 v -1.173527 q 0,-0.08197 -0.03451,-0.11649 -0.0302,-0.03452 -0.107861,-0.03452 h -0.151006 q -0.07766,0 -0.103546,0.02589 -0.02589,0.02157 -0.02589,0.09923 v 1.225301 q 0,0.07766 0.02589,0.103546 0.02589,0.02157 0.103546,0.02157 z m 0.293382,-1.790493 h 0.3883 v 2.105447 h -0.3883 v -0.168264 q -0.05609,0.168264 -0.267495,0.168264 h -0.15532 q -0.388299,0 -0.388299,-0.379671 v -1.341791 q 0,-0.383985 0.388299,-0.383985 h 0.15532 q 0.211408,0 0.267495,0.168263 z"
       id="path17449"
       style="font-size:4.31444px;font-family:Teko;-inkscape-font-specification:Teko;text-align:center;text-anchor:middle;fill:#333333;stroke:#ffccaa;stroke-width:0;stroke-linecap:round;stroke-linejoin:round" />
    <path
       d="m 28.299252,97.427108 h 0.151006 q 0.392614,0 0.392614,0.383985 v 1.721462 h -0.3883 v -1.665374 q 0,-0.07766 -0.02589,-0.09923 -0.02589,-0.02589 -0.103546,-0.02589 H 28.17413 q -0.07766,0 -0.112175,0.03452 -0.0302,0.03451 -0.0302,0.11649 v 1.639487 h -0.3883 v -2.105447 h 0.3883 v 0.168263 q 0.05609,-0.168263 0.267495,-0.168263 z"
       id="path17451"
       style="font-size:4.31444px;font-family:Teko;-inkscape-font-specification:Teko;text-align:center;text-anchor:middle;fill:#333333;stroke:#ffccaa;stroke-width:0;stroke-linecap:round;stroke-linejoin:round" />
    <path
       d="m 29.874022,97.427108 h 0.151005 q 0.392614,0 0.392614,0.383985 v 1.721462 h -0.3883 v -1.665374 q 0,-0.07766 -0.02589,-0.09923 -0.02589,-0.02589 -0.103547,-0.02589 h -0.151005 q -0.07766,0 -0.112176,0.03452 -0.0302,0.03451 -0.0302,0.11649 v 1.639487 h -0.388299 v -2.105447 h 0.388299 v 0.168263 q 0.05609,-0.168263 0.267496,-0.168263 z"
       id="path17453"
       style="font-size:4.31444px;font-family:Teko;-inkscape-font-specification:Teko;text-align:center;text-anchor:middle;fill:#333333;stroke:#ffccaa;stroke-width:0;stroke-linecap:round;stroke-linejoin:round" />
    <path
       d="m 31.284842,99.217601 h 0.151006 q 0.07766,0 0.107861,-0.03452 0.03451,-0.03452 0.03451,-0.11649 v -1.173527 q 0,-0.08197 -0.03451,-0.11649 -0.0302,-0.03452 -0.107861,-0.03452 h -0.151006 q -0.07766,0 -0.103546,0.02589 -0.02589,0.02157 -0.02589,0.09923 v 1.225301 q 0,0.07766 0.02589,0.103546 0.02589,0.02157 0.103546,0.02157 z m 0.293382,-1.790493 h 0.3883 v 2.105447 h -0.3883 v -0.168264 q -0.05609,0.168264 -0.267495,0.168264 h -0.15532 q -0.388299,0 -0.388299,-0.379671 v -1.341791 q 0,-0.383985 0.388299,-0.383985 h 0.15532 q 0.211408,0 0.267495,0.168263 z"
       id="path17455"
       style="font-size:4.31444px;font-family:Teko;-inkscape-font-specification:Teko;text-align:center;text-anchor:middle;fill:#333333;stroke:#ffccaa;stroke-width:0;stroke-linecap:round;stroke-linejoin:round" />
    <rect
       style="fill:#4662d9;fill-opacity:1;stroke:#ffccaa;stroke-width:0;stroke-linecap:round;stroke-linejoin:round"
       id="rect2615"
       width="78.58429"
       height="3.4720321"
       x="85.339523"
       y="22.41209" />
    <rect
       style="fill:#faf8ed;fill-opacity:1;stroke:#ffccaa;stroke-width:0;stroke-linecap:round;stroke-linejoin:round"
       id="rect2617"
       width="78.638359"
       height="41.998848"
       x="85.285492"
       y="25.884123" />
    <rect
       style="fill:#ffe8d1;fill-opacity:1;stroke:#ffccaa;stroke-width:0;stroke-linecap:round;stroke-linejoin:round"
       id="rect15895"
       width="8.0895596"
       height="8.0895596"
       x="14.447083"
       y="102.8223" />
    <rect
       style="fill:#d1ffd5;fill-opacity:1;stroke:#ffccaa;stroke-width:0;stroke-linecap:round;stroke-linejoin:round"
       id="rect15897"
       width="8.0895596"
       height="8.0895596"
       x="14.447083"
       y="110.91187" />
    <g
       id="g18111"
       transform="translate(-0.0678555)">
      <path
         d="m 25.449859,107.55387 v -1.19043 q 0,-0.0749 -0.02497,-0.0999 -0.02497,-0.025 -0.0999,-0.025 h -0.228927 q -0.07492,0 -0.0999,0.025 -0.02081,0.025 -0.02081,0.0999 v 1.19043 q 0,0.0749 0.02081,0.0999 0.02497,0.025 0.0999,0.025 h 0.228927 q 0.07492,0 0.0999,-0.025 0.02497,-0.025 0.02497,-0.0999 z m -0.462016,-1.61082 h 0.445367 q 0.387095,0 0.387095,0.37045 v 1.29448 q 0,0.36628 -0.387095,0.36628 h -0.445367 q -0.382933,0 -0.382933,-0.36628 v -1.29448 q 0,-0.37045 0.382933,-0.37045 z"
         id="path17267"
         style="font-size:4.16231px;font-family:Teko;-inkscape-font-specification:Teko;text-align:center;text-anchor:middle;fill:#333333;stroke-width:0.646642;stroke-linecap:round;stroke-linejoin:round" />
      <path
         d="m 26.869211,105.93889 h 0.08325 v 0.32466 h -0.149843 q -0.262226,0 -0.262226,0.30801 v 1.4027 H 26.16578 v -2.03121 h 0.374608 v 0.24974 q 0.0333,-0.10822 0.116545,-0.17898 0.08741,-0.0749 0.212278,-0.0749 z"
         id="path17269"
         style="font-size:4.16231px;font-family:Teko;-inkscape-font-specification:Teko;text-align:center;text-anchor:middle;fill:#333333;stroke-width:0.646642;stroke-linecap:round;stroke-linejoin:round" />
      <path
         d="m 27.630917,107.67041 h 0.145681 q 0.07492,0 0.104057,-0.0333 0.0333,-0.0333 0.0333,-0.11238 v -1.13215 q 0,-0.0791 -0.0333,-0.11238 -0.02914,-0.0333 -0.104057,-0.0333 h -0.145681 q -0.07492,0 -0.0999,0.025 -0.02497,0.0208 -0.02497,0.0957 v 1.18209 q 0,0.0749 0.02497,0.0999 0.02497,0.0208 0.0999,0.0208 z m 0.283037,-1.72736 h 0.374608 v 2.03121 h -0.374608 v -0.16233 q -0.05411,0.16233 -0.258063,0.16233 h -0.149843 q -0.374608,0 -0.374608,-0.36628 v -1.29448 q 0,-0.37045 0.374608,-0.37045 h 0.149843 q 0.203953,0 0.258063,0.16233 z"
         id="path17271"
         style="font-size:4.16231px;font-family:Teko;-inkscape-font-specification:Teko;text-align:center;text-anchor:middle;fill:#333333;stroke-width:0.646642;stroke-linecap:round;stroke-linejoin:round" />
      <path
         d="M 29.287519,105.94305 H 29.4332 q 0.37877,0 0.37877,0.37045 v 1.66076 h -0.374608 v -1.60665 q 0,-0.0749 -0.02497,-0.0957 -0.02497,-0.025 -0.0999,-0.025 h -0.145681 q -0.07492,0 -0.10822,0.0333 -0.02914,0.0333 -0.02914,0.11238 v 1.58168 h -0.374607 v -2.03121 h 0.374607 v 0.16233 q 0.05411,-0.16233 0.258064,-0.16233 z"
         id="path17273"
         style="font-size:4.16231px;font-family:Teko;-inkscape-font-specification:Teko;text-align:center;text-anchor:middle;fill:#333333;stroke-width:0.646642;stroke-linecap:round;stroke-linejoin:round" />
      <path
         d="m 30.648593,107.64544 h 0.145681 q 0.07492,0 0.104058,-0.0333 0.0333,-0.0333 0.0333,-0.11238 v -1.10718 q 0,-0.0791 -0.0333,-0.11238 -0.02914,-0.0333 -0.104058,-0.0333 h -0.145681 q -0.07492,0 -0.0999,0.025 -0.02497,0.0208 -0.02497,0.0957 v 1.15712 q 0,0.0708 0.02497,0.0957 0.02497,0.025 0.0999,0.025 z m 0.283037,-1.70239 h 0.374608 v 2.23932 q 0,0.36629 -0.391257,0.36629 h -0.695106 v -0.29553 h 0.586886 q 0.07492,0 0.0999,-0.025 0.02497,-0.025 0.02497,-0.0957 v -0.34548 q -0.05411,0.16233 -0.258063,0.16233 h -0.149843 q -0.374608,0 -0.374608,-0.37044 v -1.26534 q 0,-0.37045 0.374608,-0.37045 h 0.149843 q 0.203953,0 0.258063,0.16233 z"
         id="path17275"
         style="font-size:4.16231px;font-family:Teko;-inkscape-font-specification:Teko;text-align:center;text-anchor:middle;fill:#333333;stroke-width:0.646642;stroke-linecap:round;stroke-linejoin:round" />
      <path
         d="m 32.030483,106.80049 h 0.44953 v -0.44121 q 0,-0.0708 -0.02497,-0.0957 -0.02081,-0.025 -0.09573,-0.025 h -0.203954 q -0.07492,0 -0.0999,0.025 -0.02497,0.025 -0.02497,0.0957 z m 0.02081,-0.85744 h 0.407906 q 0.391257,0 0.391257,0.37045 v 0.7617 h -0.819975 v 0.48283 q 0,0.0708 0.02497,0.0957 0.02497,0.025 0.0999,0.025 h 0.191467 q 0.07492,0 0.09989,-0.025 0.02497,-0.025 0.02497,-0.0999 v -0.1665 h 0.366283 v 0.22061 q 0,0.36628 -0.387095,0.36628 h -0.399581 q -0.387095,0 -0.387095,-0.36628 v -1.29448 q 0,-0.37045 0.387095,-0.37045 z"
         id="path17277"
         style="font-size:4.16231px;font-family:Teko;-inkscape-font-specification:Teko;text-align:center;text-anchor:middle;fill:#333333;stroke-width:0.646642;stroke-linecap:round;stroke-linejoin:round" />
      <path
         d="m 33.187608,106.89622 v -0.29136 h 0.907383 v 0.29136 z"
         id="path17279"
         style="font-size:4.16231px;font-family:Teko;-inkscape-font-specification:Teko;text-align:center;text-anchor:middle;fill:#333333;stroke-width:0.646642;stroke-linecap:round;stroke-linejoin:round" />
      <path
         d="m 34.856696,107.97426 h -0.374608 v -2.78459 h 0.374608 z"
         id="path17281"
         style="font-size:4.16231px;font-family:Teko;-inkscape-font-specification:Teko;text-align:center;text-anchor:middle;fill:#333333;stroke-width:0.646642;stroke-linecap:round;stroke-linejoin:round" />
      <path
         d="m 35.597586,107.97426 h -0.374608 v -2.03121 h 0.374608 z m -0.382933,-2.4183 v -0.37045 h 0.391257 v 0.37045 z"
         id="path17283"
         style="font-size:4.16231px;font-family:Teko;-inkscape-font-specification:Teko;text-align:center;text-anchor:middle;fill:#333333;stroke-width:0.646642;stroke-linecap:round;stroke-linejoin:round" />
      <path
         d="m 36.43837,107.64544 h 0.14568 q 0.07492,0 0.104058,-0.0333 0.0333,-0.0333 0.0333,-0.11238 v -1.10718 q 0,-0.0791 -0.0333,-0.11238 -0.02914,-0.0333 -0.104058,-0.0333 h -0.14568 q -0.07492,0 -0.0999,0.025 -0.02497,0.0208 -0.02497,0.0957 v 1.15712 q 0,0.0708 0.02497,0.0957 0.02497,0.025 0.0999,0.025 z m 0.283037,-1.70239 h 0.374608 v 2.23932 q 0,0.36629 -0.391258,0.36629 h -0.695105 v -0.29553 h 0.586885 q 0.07492,0 0.0999,-0.025 0.02497,-0.025 0.02497,-0.0957 v -0.34548 q -0.05411,0.16233 -0.258064,0.16233 H 36.3135 q -0.374608,0 -0.374608,-0.37044 v -1.26534 q 0,-0.37045 0.374608,-0.37045 h 0.149843 q 0.203954,0 0.258064,0.16233 z"
         id="path17285"
         style="font-size:4.16231px;font-family:Teko;-inkscape-font-specification:Teko;text-align:center;text-anchor:middle;fill:#333333;stroke-width:0.646642;stroke-linecap:round;stroke-linejoin:round" />
      <path
         d="m 38.094972,105.94305 h 0.145681 q 0.37877,0 0.37877,0.37045 v 1.66076 h -0.374607 v -1.60665 q 0,-0.0749 -0.02497,-0.0957 -0.02497,-0.025 -0.0999,-0.025 h -0.145681 q -0.07492,0 -0.10822,0.0333 -0.02914,0.0333 -0.02914,0.11238 v 1.58168 h -0.374608 v -2.78459 h 0.374608 v 0.91571 q 0.05411,-0.16233 0.258063,-0.16233 z"
         id="path17287"
         style="font-size:4.16231px;font-family:Teko;-inkscape-font-specification:Teko;text-align:center;text-anchor:middle;fill:#333333;stroke-width:0.646642;stroke-linecap:round;stroke-linejoin:round" />
      <path
         d="M 39.668325,106.2469 H 39.38945 v 1.28615 q 0,0.0749 0.02081,0.0999 0.02497,0.0208 0.0999,0.0208 h 0.158168 v 0.3205 H 39.40194 q -0.391257,0 -0.391257,-0.36628 v -1.36108 h -0.191467 v -0.30385 h 0.191467 v -0.34547 h 0.37877 v 0.34547 h 0.278875 z"
         id="path17289"
         style="font-size:4.16231px;font-family:Teko;-inkscape-font-specification:Teko;text-align:center;text-anchor:middle;fill:#333333;stroke-width:0.646642;stroke-linecap:round;stroke-linejoin:round" />
    </g>
    <g
       id="g18097"
       transform="translate(-1.4016595)">
      <path
         d="m 33.187608,114.98579 v -0.29136 h 0.907383 v 0.29136 z"
         id="path17304"
         style="font-size:4.16231px;font-family:Teko;-inkscape-font-specification:Teko;text-align:center;text-anchor:middle;fill:#333333;stroke-width:0.646642;stroke-linecap:round;stroke-linejoin:round" />
      <path
         d="m 34.856696,116.06383 h -0.374608 v -2.78459 h 0.374608 z"
         id="path17306"
         style="font-size:4.16231px;font-family:Teko;-inkscape-font-specification:Teko;text-align:center;text-anchor:middle;fill:#333333;stroke-width:0.646642;stroke-linecap:round;stroke-linejoin:round" />
      <path
         d="m 35.597586,116.06383 h -0.374608 v -2.03121 h 0.374608 z m -0.382933,-2.4183 v -0.37045 h 0.391257 v 0.37045 z"
         id="path17308"
         style="font-size:4.16231px;font-family:Teko;-inkscape-font-specification:Teko;text-align:center;text-anchor:middle;fill:#333333;stroke-width:0.646642;stroke-linecap:round;stroke-linejoin:round" />
      <path
         d="m 36.43837,115.73501 h 0.14568 q 0.07492,0 0.104058,-0.0333 0.0333,-0.0333 0.0333,-0.11239 v -1.10717 q 0,-0.0791 -0.0333,-0.11238 -0.02914,-0.0333 -0.104058,-0.0333 h -0.14568 q -0.07492,0 -0.0999,0.025 -0.02497,0.0208 -0.02497,0.0957 v 1.15712 q 0,0.0708 0.02497,0.0957 0.02497,0.025 0.0999,0.025 z m 0.283037,-1.70239 h 0.374608 v 2.23932 q 0,0.36629 -0.391258,0.36629 h -0.695105 v -0.29553 h 0.586885 q 0.07492,0 0.0999,-0.025 0.02497,-0.025 0.02497,-0.0957 v -0.34548 q -0.05411,0.16233 -0.258064,0.16233 H 36.3135 q -0.374608,0 -0.374608,-0.37044 v -1.26534 q 0,-0.37045 0.374608,-0.37045 h 0.149843 q 0.203954,0 0.258064,0.16233 z"
         id="path17310"
         style="font-size:4.16231px;font-family:Teko;-inkscape-font-specification:Teko;text-align:center;text-anchor:middle;fill:#333333;stroke-width:0.646642;stroke-linecap:round;stroke-linejoin:round" />
      <path
         d="m 38.094972,114.03262 h 0.145681 q 0.37877,0 0.37877,0.37045 v 1.66076 h -0.374607 v -1.60665 q 0,-0.0749 -0.02497,-0.0957 -0.02497,-0.025 -0.0999,-0.025 h -0.145681 q -0.07492,0 -0.10822,0.0333 -0.02914,0.0333 -0.02914,0.11238 v 1.58168 h -0.374608 v -2.78459 h 0.374608 v 0.91571 q 0.05411,-0.16233 0.258063,-0.16233 z"
         id="path17312"
         style="font-size:4.16231px;font-family:Teko;-inkscape-font-specification:Teko;text-align:center;text-anchor:middle;fill:#333333;stroke-width:0.646642;stroke-linecap:round;stroke-linejoin:round" />
      <path
         d="M 39.668325,114.33647 H 39.38945 v 1.28615 q 0,0.0749 0.02081,0.0999 0.02497,0.0208 0.0999,0.0208 h 0.158168 v 0.3205 H 39.40194 q -0.391257,0 -0.391257,-0.36629 v -1.36107 h -0.191467 v -0.30385 h 0.191467 v -0.34547 h 0.37877 v 0.34547 h 0.278875 z"
         id="path17314"
         style="font-size:4.16231px;font-family:Teko;-inkscape-font-specification:Teko;text-align:center;text-anchor:middle;fill:#333333;stroke-width:0.646642;stroke-linecap:round;stroke-linejoin:round" />
      <g
         id="g17938"
         transform="translate(1.4016555,40.088652)">
        <path
           d="m 25.054789,75.613345 h 0.151005 q 0.07766,0 0.107861,-0.03452 0.03452,-0.03451 0.03452,-0.11649 v -1.147641 q 0,-0.08197 -0.03452,-0.11649 -0.0302,-0.03451 -0.107861,-0.03451 h -0.151005 q -0.07766,0 -0.103547,0.02589 -0.02589,0.02157 -0.02589,0.09923 v 1.199414 q 0,0.07335 0.02589,0.09923 0.02589,0.02589 0.103547,0.02589 z m 0.293382,-1.764606 h 0.388299 v 2.321168 q 0,0.379671 -0.405557,0.379671 h -0.720512 v -0.306325 h 0.608336 q 0.07766,0 0.103547,-0.02589 0.02589,-0.02589 0.02589,-0.09923 v -0.358098 q -0.05609,0.168263 -0.267496,0.168263 h -0.15532 q -0.388299,0 -0.388299,-0.383985 v -1.31159 q 0,-0.383985 0.388299,-0.383985 h 0.15532 q 0.211408,0 0.267496,0.168263 z"
           id="path17928"
           style="font-size:4.31444px;font-family:Teko;-inkscape-font-specification:Teko;text-align:center;text-anchor:middle;fill:#333333;stroke:#ffccaa;stroke-width:0;stroke-linecap:round;stroke-linejoin:round" />
        <path
           d="m 26.845284,73.844424 h 0.08629 v 0.336527 h -0.15532 q -0.27181,0 -0.27181,0.319268 v 1.453966 h -0.388299 v -2.105446 h 0.388299 v 0.258866 q 0.03452,-0.112175 0.120804,-0.185521 0.0906,-0.07766 0.220037,-0.07766 z"
           id="path17930"
           style="font-size:4.31444px;font-family:Teko;-inkscape-font-specification:Teko;text-align:center;text-anchor:middle;fill:#333333;stroke:#ffccaa;stroke-width:0;stroke-linecap:round;stroke-linejoin:round" />
        <path
           d="m 27.514026,74.737513 h 0.465959 v -0.45733 q 0,-0.07335 -0.02589,-0.09923 -0.02157,-0.02589 -0.09923,-0.02589 h -0.211408 q -0.07766,0 -0.103547,0.02589 -0.02589,0.02589 -0.02589,0.09923 z m 0.02157,-0.888774 h 0.422815 q 0.405557,0 0.405557,0.383985 v 0.789542 h -0.849944 v 0.500476 q 0,0.07335 0.02589,0.09923 0.02589,0.02589 0.103547,0.02589 h 0.198464 q 0.07766,0 0.103547,-0.02589 0.02589,-0.02589 0.02589,-0.103547 v -0.172578 h 0.379671 v 0.228666 q 0,0.37967 -0.401243,0.37967 h -0.414186 q -0.401243,0 -0.401243,-0.37967 v -1.341791 q 0,-0.383985 0.401243,-0.383985 z"
           id="path17932"
           style="font-size:4.31444px;font-family:Teko;-inkscape-font-specification:Teko;text-align:center;text-anchor:middle;fill:#333333;stroke:#ffccaa;stroke-width:0;stroke-linecap:round;stroke-linejoin:round" />
        <path
           d="m 29.067227,74.737513 h 0.465959 v -0.45733 q 0,-0.07335 -0.02589,-0.09923 -0.02157,-0.02589 -0.09923,-0.02589 H 29.19666 q -0.07766,0 -0.103546,0.02589 -0.02589,0.02589 -0.02589,0.09923 z m 0.02157,-0.888774 h 0.422815 q 0.405558,0 0.405558,0.383985 v 0.789542 h -0.849945 v 0.500476 q 0,0.07335 0.02589,0.09923 0.02589,0.02589 0.103546,0.02589 h 0.198464 q 0.07766,0 0.103547,-0.02589 0.02589,-0.02589 0.02589,-0.103547 v -0.172578 h 0.37967 v 0.228666 q 0,0.37967 -0.401243,0.37967 h -0.414186 q -0.401243,0 -0.401243,-0.37967 v -1.341791 q 0,-0.383985 0.401243,-0.383985 z"
           id="path17934"
           style="font-size:4.31444px;font-family:Teko;-inkscape-font-specification:Teko;text-align:center;text-anchor:middle;fill:#333333;stroke:#ffccaa;stroke-width:0;stroke-linecap:round;stroke-linejoin:round" />
        <path
           d="m 30.905181,73.848739 h 0.151005 q 0.392614,0 0.392614,0.383985 v 1.721461 h -0.388299 v -1.665373 q 0,-0.07766 -0.02589,-0.09923 -0.02589,-0.02589 -0.103547,-0.02589 h -0.151005 q -0.07766,0 -0.112175,0.03451 -0.0302,0.03452 -0.0302,0.11649 v 1.639487 h -0.388299 v -2.105446 h 0.388299 v 0.168263 q 0.05609,-0.168263 0.267496,-0.168263 z"
           id="path17936"
           style="font-size:4.31444px;font-family:Teko;-inkscape-font-specification:Teko;text-align:center;text-anchor:middle;fill:#333333;stroke:#ffccaa;stroke-width:0;stroke-linecap:round;stroke-linejoin:round" />
      </g>
    </g>
  </g>
</svg>
